<?xml version="1.0" encoding="UTF-8"?> <svg xmlns="http://www.w3.org/2000/svg" id="_2x4" data-name="2x4" viewBox="0 0 1000 400"><defs><style> .cls-1 { fill: #2a1a1d; } </style></defs><path class="cls-1" d="M204.48,169.31c5.67-69.2,97.74-80.11,116.78-25.56,12.51,35.85-10.6,68.57-36.16,91l-27.81,23.65h70.41v32.48h-123.23v-29.7c21.34-19.79,48.2-36.38,67.18-58.46,10.6-12.32,23.05-34.55,11.97-50.07-2.39-3.34-8.09-7.49-12.21-8.19-23.31-3.97-31.36,13.8-29.88,34.12l-37.07-.93c.16-2.75-.22-5.62,0-8.35Z"></path><path class="cls-1" d="M771.5,112.69v109.51h24.09v30.63h-24.09v38.05h-35.21v-38.05h-74.12v-36.66l72.73-103.48h36.6ZM736.3,222.21l.92-62.18-42.61,62.18h41.69Z"></path><polygon class="cls-1" points="514.87 216.62 563.9 264.56 545.43 283.95 495.07 235.27 445.84 284.37 426.91 264.56 475.93 215.25 427.25 164.67 445.84 146.12 495.74 195.22 544.97 146.12 563.9 165.93 514.87 216.62"></polygon></svg> 