<?xml version="1.0" encoding="UTF-8"?> <svg xmlns="http://www.w3.org/2000/svg" id="Base" viewBox="0 0 1000 400"><defs><style> .cls-1 { fill: #2a1a1d; } </style></defs><path class="cls-1" d="M196.31,83.49l94.61.56c26.69,2.93,48.74,19.19,50.77,47.45,1.2,16.74-4.9,30.23-18.91,39.35-2.07,1.35-10.48,5-11.04,5.61-.64.7-.68.98-.57,1.93,31.4,5.47,44.81,33.51,38.67,63.37-5.7,27.75-29.93,41.37-56.68,43.21l-96.86-.02V83.49ZM223.51,109.57v56.88l1.91.86c27.25-3.2,91.5,13.45,88.01-32.51-.99-13.02-13.14-25.23-26.38-25.23h-63.54ZM223.51,192.81v65.76l.83.83h66.04c25.39,0,38.59-26.4,29.06-48.48-4.31-9.98-16.45-18.11-27.39-18.11h-68.53Z"></path><path class="cls-1" d="M803.41,220h-109.88c1.25,23.51,15.65,42.88,40.24,44.39,19.48,1.19,34.17-7.69,41.69-25.57l24.03,7.85c1.12,1.3-5.82,13.79-7.17,15.8-13.66,20.46-37.64,27.19-61.36,25.82-92.87-5.4-83.87-164.79,16.61-151.46,42.21,5.6,58.48,44.55,55.84,83.18ZM775.66,198.36c-1.77-25.11-20.89-41.49-46.19-37.58-19.89,3.07-31.95,18.53-35.39,37.58h81.58Z"></path><path class="cls-1" d="M499.31,284.93h-25.53l-.55-20.22-1.4-.33c-21.48,35.65-91.93,32.66-95.19-15.23-1.93-28.36,15.36-44.26,42-48.5l53.48-4.51v-11.93c0-1.8-2.12-7.9-3.03-9.73-6.74-13.61-23.45-16.16-37.13-14.34-14.16,1.89-25.06,9.81-25.87,24.9h-24.97c.15-28.06,22.23-45.21,48.57-48.27,36.26-4.22,66.96,11.72,69.1,50.74,1.62,29.57-1,60.71-.05,90.5.07,2.32.92,4.54.58,6.91ZM472.11,216.68c-18.07,2.58-36.89,1.99-54.53,6.79-24.18,10.03-19.07,40.91,8.2,42.59,28.74,1.77,45.19-23.24,46.33-49.38Z"></path><path class="cls-1" d="M641.93,180.61l-27.19,3.33c-1.3-9.53-7.22-17.72-16.27-21.2-13.62-5.23-44.05-3.53-44.74,16.01-.39,11.06,8.65,16.37,18.17,18.33,26.77,5.51,65.66,2.09,72.99,36.89,10.27,48.8-44.78,60.62-81.33,51.92-22.19-5.29-37.76-20.8-40.95-43.68l27.95-3.29c2.01,4.03,2.92,8.22,5.66,12.13,10.22,14.6,36.91,16.38,52.23,10.12,18.03-7.36,14.9-30-2.71-35.23-23.27-6.91-60.05.02-73.24-27.2-12.29-25.34,2.3-52.12,28.29-59.6,32.63-9.39,77.8,2.26,81.14,41.46Z"></path></svg> 