<?xml version="1.0" encoding="UTF-8"?> <svg xmlns="http://www.w3.org/2000/svg" id="Bulletproof" viewBox="0 0 1000 400"><defs><style> .cls-1 { fill: #2a1a1d; } </style></defs><path class="cls-1" d="M137.57,76.95l18.63,45.94c51.12,14.97,76.72,72.32,50.15,119.76-29.53,52.73-105.63,55.14-139.17,4.96-31.64-47.33-6.26-109.49,47.27-124.8l18.42-45.39,1.88-1.18,2.81.71ZM148.5,201.89c29.95-2.32,30.51-47.17,1.46-50.46-7.14-.81-30.12-1.02-36.89.06-3.44.55-6.3,3.73-7.89,6.68l.3,89.05c1.95,3.34,5.55,5.62,9.45,6.09,7.61.92,26.26.75,34.04-.03,23.38-2.35,30.73-32.35,12.1-46.01l-12.57-5.39Z"></path><path class="cls-1" d="M257.38,254.27v-103.8h38.4c3.89,0,12.16,5.49,14.52,8.79,5.49,7.67,6.36,26.45,1.73,34.58-1.05,1.84-5.39,5.27-5.07,6.56,5.29,3.31,8.23,8.24,8.79,14.54.86,9.6,1.26,25.05-5.48,32.44-2.29,2.52-10.36,6.89-13.51,6.89h-39.37ZM280.71,193.15c5.77.02,10.14-.92,10.75-7.22.89-9.12,1.66-20.25-10.75-18.01v25.22ZM280.71,236.8c7.29.49,11.95-.14,12.69-8.2.97-10.57.8-20.29-12.69-17.99v26.19Z"></path><path class="cls-1" d="M731.33,150.46c7.93,1.06,16.89,8.49,18.53,16.44.99,4.78,1.02,18.73.2,23.59-1.06,6.3-5.75,7.8-8.53,12.83,3.9,1.4,8.76,8.87,8.76,12.62v38.32h-22.36v-32.5c0-.31-1.43-5.51-1.7-6.07-1.9-4.03-7.24-3.14-10.94-3.15v40.26l-1.46,1.46h-21.87v-103.8c12.28,1.18,27.46-1.59,39.37,0ZM715.29,194.12c7.54.65,11.91.05,12.69-8.2.98-10.42.52-20.08-12.69-17.99v26.19Z"></path><path class="cls-1" d="M853.11,148.77c20.98-2.87,34.58,7.36,36.19,28.38.99,12.86,1.56,49.12-1.62,60.45-7.41,26.37-55.62,26.86-58.63-9.06-1.07-12.82-1.55-49.22,1.41-60.65,2.77-10.68,11.84-17.64,22.64-19.12ZM852.32,230.54c.95,10.64,12.36,9.83,13.6,1.84l.1-58.2c-.41-4.54-2.8-8.99-8.08-8.05-3.41.61-5.24,3.95-5.6,7.1l-.03,57.3Z"></path><path class="cls-1" d="M348.77,234.38c.99,5.98,12.64,3.52,12.64,0v-83.92h23.33v82.95c0,1.31-3.07,8.97-4.05,10.51-10.48,16.58-42.65,16.31-52.19-.96-.51-.92-3.07-7.2-3.07-7.61v-84.89h21.87l1.46,1.46v82.46Z"></path><path class="cls-1" d="M784.08,148.77c15.03-2.06,33.31,4.59,35.24,21.57,1.26,11.12,1.63,56.53-.43,66.51-5.4,26.1-55.89,28.29-58.86-7.35-1.01-12.15-1.55-53.14,1.62-63.35,2.91-9.39,12.98-16.09,22.44-17.39ZM783.3,230.54c.93,10.44,12.21,10.55,13.57.83l.13-56.22c-.44-4.79-2.19-10.08-8.07-9.03-3.41.61-5.24,3.95-5.6,7.1l-.03,57.3Z"></path><path class="cls-1" d="M648.21,212.55v41.72h-23.33v-103.8h40.35c2.16,0,10.25,4.57,12.05,6.41,7.3,7.46,7.56,29.56,5.51,39.24-3.21,15.12-21.86,17.4-34.57,16.44ZM648.21,194.12c13.48,2.29,13.65-7.42,12.69-17.99-.74-8.06-5.39-8.69-12.69-8.2v26.19Z"></path><polygon class="cls-1" points="551.96 150.46 551.96 169.87 526.68 169.87 526.68 192.18 550.01 192.18 550.01 210.61 526.68 210.61 526.68 234.86 554.87 234.86 554.87 254.27 504.81 254.27 503.35 252.81 503.35 150.46 551.96 150.46"></polygon><polygon class="cls-1" points="946.67 150.46 946.67 169.87 922.37 169.87 922.37 192.18 944.73 192.18 944.73 210.61 922.37 210.61 922.37 252.81 920.91 254.27 899.04 254.27 899.04 150.46 946.67 150.46"></polygon><polygon class="cls-1" points="617.1 150.46 617.1 169.87 600.57 169.87 600.57 252.81 599.11 254.27 577.24 254.27 577.24 169.87 560.71 169.87 560.71 150.46 617.1 150.46"></polygon><polygon class="cls-1" points="473.21 234.86 496.54 234.86 496.54 254.27 449.88 254.27 449.88 150.46 471.75 150.46 473.21 151.92 473.21 234.86"></polygon><polygon class="cls-1" points="418.77 150.46 418.77 234.86 441.61 234.86 443.07 236.32 443.07 252.81 441.61 254.27 396.4 254.27 396.4 150.46 418.77 150.46"></polygon></svg> 