<?xml version="1.0" encoding="UTF-8"?> <svg xmlns="http://www.w3.org/2000/svg" id="Chandelier" viewBox="0 0 1000 400"><defs><style> .cls-1 { fill: #2a1a1d; } </style></defs><path class="cls-1" d="M785.76,169.93c-7.06-7.01,3.37-23.6,13.17-15.8,8.96,7.14-4.69,24.23-13.17,15.8Z"></path><path class="cls-1" d="M959.15,215.88c-4.64,3.86-12.21,15.55-16.95,20.62-7.69,8.22-33.42,35.47-42.07,38.47-2.4.83-4.75,1.03-7.25.8-2.18-2.14,7.39-17.23,9.27-20.23,8.61-13.76,24.8-29.05,31.7-41.65,2.55-4.66,4.35-12.2-2.45-13.2-9.7-1.43-20.9,6-31.35,3.6-.82-.81,6.34-21.36-2.44-21.23-14.63.21-5.06,20.63-9.27,26.55-1.94,2.73-12.89,16.17-16.05,19.73-10.28,11.59-37.77,38.68-51.62,43.24-25.88,8.51-24.67-11.84-15.38-28.73,18.76.12,38.64-5.29,52.59-18.16,20.46-18.87,6.32-36.09-19.26-31.71-30.42,5.21-52.75,47.72-73.59,66.9-3.55,3.26-15.42,12.4-20,11.31-4.48-1.07-.57-6.17.56-8.36,10.78-20.93,26.17-40.27,37.69-60.83.2-12.24-9.35-12.08-16.79-4.1-18.38,19.7-31.29,45.42-52.82,63.49-4.21,3.53-24.25,18.14-25.21,5.33-.31-4.07,11.56-33.21,14.66-37.29,19.75-26.03,51.03-46.77,66.45-76.7,10.14-19.69-3.37-32.15-21.8-19.95-14.92,9.88-32.92,39.08-41.62,55-11.55,21.15-16.54,43.32-35.49,59.32-10.2,8.61-39.45,28.17-52.49,25.56-10.47-2.1-8.05-15.08-5.47-22.59,4-11.62,14.91-7.65,24.35-9.66,15.94-3.41,51.93-23.58,38.74-43.18-6.89-10.25-27.22-5.73-36.88-1.42-27.23,12.15-42.98,45.64-65.93,64.71-3.82,3.18-8.12,7.59-13.48,7.1-.5-6.96,3.73-13.14,6.84-19.07,19.2-36.58,43.37-70.88,62.23-107.72,3.12-13.77-6.54-16.46-15.02-6.03-9.88,12.16-22.6,36.74-31.08,51.21-3.19,5.45-6.73,11.22-8.66,17.29-3.31-.63-2.35-5.37-5.39-8-8.81-7.62-23.38-3.27-32.81,1.17-27.21,12.82-46.2,50.73-71.07,70.3-4.03,3.17-7,5.24-12.58,4.42-3.51-3.48,25.81-45.34,29.01-52.36,3.86-8.47,8.85-20.14-1.45-26.03-13.81-7.9-33.87,11.81-42.82,21.19.09-3.91,2.66-7.43,2.8-11.65.41-12.59-11.57-13.04-20.46-7.72-12.67,7.58-34.93,39.08-46.82,51.6-6.43,6.78-23.17,25.7-32.28,25-2.35-1.79-.47-6.25.48-8.46,7.29-16.86,32.29-40.47,37.24-55.78,2.37-7.34-.86-13.42-9-12.67-6.68.61-7.09,10.82-13.49,10.79-1.45-19.37-22.22-14.98-35.3-9.28-25.22,11-40.74,41.69-61.46,60.23-3.17,2.84-20.19,18.27-23.33,15.15,2.9-19.95,47.31-55.01,33.86-75.74-7.36-11.35-27.14,2.07-35.56,7.06l-25.17,21.35c17.91-24.06,47.03-42.44,61.22-69.39,12.91-24.52-3.28-34.21-23.51-19.87-29.28,20.76-41.85,70.22-65.49,97.32-15.66,17.96-47.96,47.62-73.37,44.5-25.5-3.13-18.31-38.93-9.71-54.95,36.71-2.47,76.33-23.39,100.04-51.26,8.66-10.19,28.71-38.29,15.74-50.46-8.73-8.2-29.71-2.42-39.65,1.61-34.74,14.07-66.88,51.55-84.59,83.64-1.75,3.17-2.55,9.71-5.52,10.64-6.36,2-24.33-4.85-29.42-9.58-23.19-21.53,6.35-63.2,31.92-64.92,20.62-1.38,17.88,21.95,3.48,30.36-4.21,2.46-12.22,2.6-12.02,8.56,19.92,3.84,41.49-31.41,21-41.48-22.18-10.9-57.93,13.05-60.46,37-3.05,28.84,16.3,42.84,43,45.63-2.37,17.14-9,37.12,5.35,50.94,25.66,24.72,70.42-6.55,88.8-27.76,3.03,9.22-20.44,30.43-8.06,36.7,2.88,1.46,5.44.47,7.85-1.18,4.92-3.35,15.38-25.36,20.01-31.86,8.44-11.84,42.1-45.71,55.55-48.26,1.48-.28,5.64-.9,6.18.8-6.05,16.51-40.34,54.96-37.34,71.04.87,4.65,4.14,10.16,9.53,10.06,14.17-.27,36.38-26.1,46.65-35.52-.09,7.27-2.03,14.52-.51,21.94,1.5,7.31,8.95,13.85,16.59,13.86,13.63.03,22.49-12,33.19-17.94-2.06,21.93,12.86,21.14,26.93,9.85,22.24-17.85,38.29-43.38,58.18-63.5,4.43-4.49,17.33-15.92,12.52-1.81l-41.26,60.76c-3.18,11.3,8.84,16.31,17.17,6.34,18.23-21.81,33.43-58.12,59.22-73.19,3.22-1.88,15.16-7.86,13.99-.4-1.05,6.72-20.45,32.26-25.17,41.07-4.76,8.88-14.29,24.36-7.69,33.33,8.49,11.54,22.34,1.22,30.38-5.35,8.47-6.93,13.77-16.6,22.42-23.19-3.93,28.38,10.13,44.1,36.47,26.51,2.67-1.79,13.54-14.34,15.52-12.21-.42,6.45-1.13,17.16,6.65,19.4,12.71,3.65,35.52-28.72,45.32-35.49-.19,10.62-1.78,25.03,8.29,31.95,21.08,14.51,57.94-17.57,74.16-30.17-11.53,36.2,10.48,42.59,36.73,21.41,9.58-7.72,16.09-18.51,25.14-26.75l-11.31,26.31c-.17,9.46,5.19,14.14,14.75,12.94,13.54-1.71,30.27-28.34,42.25-35.7-8.66,37.4,19.36,44.21,47.22,26.51,24.71-15.7,38.7-38.02,57.62-58.7,8.05-8.8,10.55-3.72,20.63-.88-9.48,13.63-34.32,46.55-27.29,62.98,4.95,11.59,18.04,4.6,25.37-.57,13.87-9.79,38.65-37.09,49.27-50.94,2.2-2.87,7.85-15.4,1.02-9.71ZM852.14,198.74c1.78.01,3.19,1.53,3.07,3.31-1.42,20.85-26.59,37.52-46.57,36.19,9.61-15.6,22.85-39.62,43.5-39.5ZM746.2,151.9c3.75-4.76,13.9-17.26,20.18-15.41,5.67,1.67-1.03,13.49-2.86,16.59-6.68,11.32-36.88,47.19-46.79,56.1-.29.26-4.21,2.39-4.86,1.39,11.32-18.97,20.64-41.3,34.33-58.68ZM628.64,222.31c8.28-11.53,22.58-28.85,38.26-23.22-1.99,22.32-24.9,38.44-46.45,39.16-2.05-2.1,6.45-13.5,8.2-15.94ZM222.82,194.77c5.65-11.92,27.01-52.31,37.81-57.01,2.84-1.24,5.4-1.7,8.49-1.35,1.13,10.09-6.31,18.78-11.82,26.62-10.31,14.67-22.94,27.84-36.55,39.49-.61-3.07.85-5.18,2.07-7.75ZM151.76,154.31c10.77-9.37,38.01-29.77,51.99-28.76,12.69.92,5.24,18.5,1.78,25.19-17.5,33.83-67,63.58-104.88,66.07,13.33-22.27,31.45-45.39,51.11-62.49ZM309.21,270.17c-6.9,4.05-21.77,7.8-21.96-4.16-.16-10.21,12.87-32.93,19.55-41.13,6.08-7.46,30.88-33.57,40.78-23.73,1.72,1.71,2.39,6.89,2.36,9.41-.17,14.46-28.17,52.24-40.73,59.61ZM549.49,245.26c-7.03,10.68-20.71,27.17-34.09,28.64-19.07,2.1-9.23-18.3-4.64-27.94,6.79-14.28,28.33-44.2,44.71-46.71,25.68-3.93-.54,37.75-5.98,46.01ZM894.63,203.7s-3.56-14.36.93-15.16c4.49-.8,3.53,7.66-.93,15.16Z"></path></svg> 