<?xml version="1.0" encoding="UTF-8"?> <svg xmlns="http://www.w3.org/2000/svg" id="DixonBaxi" viewBox="0 0 1000 400"><defs><style> .cls-1 { fill: #2a1a1d; } </style></defs><path class="cls-1" d="M737.35,281.12c-22.68-2.29-34.39-20.63-30.59-42.43,4.67-26.78,35.98-26.26,56.89-29.51,7.12-1.11,18.92-2.54,19.78-11.4,1.01-10.48-5.77-15.84-15.59-16.58-12.46-.94-24.5,2.07-25.46,16.49l-.67.86h-32c.41-18.15,12.46-30.67,29.31-35.81,21.98-6.7,73.52-6.51,76.63,24.41,2.6,25.91-3.88,59.48,1.74,84.4.54,2.41,1.77,4.65,2.42,7.02h-32.77l-2.3-10.7c-5.42,5.59-12.12,9.04-19.61,11.07-2.64.72-7.28,1.94-9.84,2.18-4.42.42-13.52.44-17.92,0ZM783.44,222.51c-11.26,7.84-39.38,2.03-44.2,17.93-6.68,22.03,27.11,24.59,38.32,12.14,2.95-3.28,5.88-10.66,5.88-15.04v-15.04Z"></path><path class="cls-1" d="M385.04,281.12c-4.94.45-14.52.45-19.46,0-64.15-5.9-68.74-106.06-7.17-120.04,31.69-7.19,64.81,5.57,74.39,38.1,10.68,36.26-6.74,78.17-47.76,81.94ZM371.1,183.92c-25.2,2.89-28.04,40.89-19.44,58.82,10.29,21.45,41.29,18.93,48.98-3.94,7.57-22.51,1.26-58.41-29.54-54.88Z"></path><rect class="cls-1" x="947.81" y="162.37" width="32.26" height="116.21"></rect><rect class="cls-1" x="947.81" y="118.53" width="32.26" height="26.5"></rect><path class="cls-1" d="M565.29,118.53h84.23c28.04,1.71,46.8,16.05,42.7,46.07-1.67,12.23-9.3,21.55-20.42,26.56,16.31,5.71,27.05,18.08,28.19,35.66,2.21,34.17-20.88,49.55-52.49,51.78l-82.21-.02V118.53ZM601.14,182.76h40.71c2.94,0,9.98-3.61,12.03-5.86,5.86-6.43,5.42-19.95-1.29-25.72-3.29-2.84-11.08-5.11-15.35-5.11h-36.1v36.7ZM601.14,250.54h43.78c.54,0,5.31-1.22,6.17-1.5,11.24-3.73,14.84-13.55,12.89-24.6-2.3-13.03-12.74-16.56-24.67-17.24-12.47-.71-25.63.57-38.17.02v43.32Z"></path><path class="cls-1" d="M19.93,278.58V118.53h76.55c51.94,4.08,70.88,48.62,64.71,95.49-4.88,37.02-28.3,62.45-66.76,64.54H19.93ZM55.77,248.5h35.08c42.07,0,46.91-76.23,15.77-94.19-15.15-8.74-34.12-4.83-50.85-5.71v99.9Z"></path><path class="cls-1" d="M551.98,278.58h-32.77v-73.14c0-2.7-2.43-10.51-3.87-12.97-5.73-9.79-23.14-9.54-31.42-3.3-7.48,5.63-8.25,15.89-9.26,24.43v64.98h-32.27v-116.21h30.72v16.31l5.11-6.89c12.07-13.14,34.8-15.51,50.98-9.43,19.25,7.23,22.06,25.26,22.8,43.57.97,23.97-.78,48.62-.02,72.65Z"></path><path class="cls-1" d="M246.52,162.37l19.98,29.56c.98.23.66-.32.91-.65,6.93-9.06,12.38-19.94,19.57-28.92h35.59l-37.81,54.36,42.42,61.84h-36.61l-23.38-34.83-1.19-.85-23.3,35.68h-36.36l41.31-60.91-37.73-55.3h36.61Z"></path><polygon class="cls-1" points="863.58 162.37 884.06 192.44 903.77 162.37 939.62 162.37 901.89 216.65 944.74 278.58 907.36 278.58 883.3 242.39 859.48 278.58 823.38 278.58 864.77 217.59 826.96 162.37 863.58 162.37"></polygon><rect class="cls-1" x="169.97" y="162.37" width="32.77" height="116.21"></rect><rect class="cls-1" x="169.97" y="118.53" width="32.77" height="26.5"></rect></svg> 