<?xml version="1.0" encoding="UTF-8"?> <svg xmlns="http://www.w3.org/2000/svg" id="High_Tide" data-name="High Tide" viewBox="0 0 1000 400"><defs><style> .cls-1 { fill: #2a1a1d; } </style></defs><polygon class="cls-1" points="137.7 129.69 137.7 183.55 164.14 183.55 164.14 129.69 200.37 129.69 200.37 270.69 164.14 270.69 164.14 211.94 137.7 211.94 137.7 270.69 101.47 270.69 101.47 129.69 137.7 129.69"></polygon><polygon class="cls-1" points="421.66 129.69 421.66 183.55 448.1 183.55 448.1 129.69 484.33 129.69 484.33 270.69 448.1 270.69 448.1 211.94 421.66 211.94 421.66 270.69 385.43 270.69 385.43 129.69 421.66 129.69"></polygon><path class="cls-1" d="M695.84,270.69v-141h51.41c5.12,0,17.59,4.46,22.34,7.04,45.11,24.56,37.78,133.96-23.31,133.96h-50.43ZM732.07,245.24c13.05.58,21.23-3.88,24.97-16.64,3.92-13.39,4.09-47.64-1.3-60.4-4.45-10.54-12.48-13.86-23.67-13.05v90.09Z"></path><path class="cls-1" d="M369.77,179.63h-33.29c-1.07-12-2.17-27.38-18.14-25.48-3.33.4-5.28,1.86-7.32,4.43-8.66,10.88-8.07,56.22-5.6,70.23,5.18,29.41,33.37,21.72,32.04-4.13h-16.65v-24.48h48.96v71.48h-15.67l-6.4-10.77c-14.42,13.14-33.54,16.18-51.65,8.6-35.82-14.99-35.12-80.55-23-110.69,21.27-52.87,102.16-37.54,96.71,20.82Z"></path><path class="cls-1" d="M898.53,129.69v26.44h-51.9v28.4c.72.26,1.17-.98,1.47-.98h31.33l1.47,1.47v25.95h-34.27v33.29l51.9-.98v27.42h-88.13v-141h88.13Z"></path><polygon class="cls-1" points="630.23 129.69 630.23 156.13 599.88 156.13 599.88 270.69 563.65 270.69 563.65 156.13 533.29 156.13 533.29 129.69 630.23 129.69"></polygon><rect class="cls-1" x="217.01" y="129.69" width="36.23" height="141"></rect><rect class="cls-1" x="641.98" y="129.69" width="36.23" height="141"></rect></svg> 