<?xml version="1.0" encoding="UTF-8"?> <svg xmlns="http://www.w3.org/2000/svg" id="Household" viewBox="0 0 1000 400"><defs><style> .cls-1 { fill: #2a1a1d; } </style></defs><path class="cls-1" d="M837.96,272.47c.09,2.06.09,4.47,0,6.52-1.44,32.47-28.07,59.76-60.75,61.53h-198.15v-129.58h195.35c33.62.51,62.06,28.04,63.55,61.52ZM613.81,225.03c-13.62.96-27.19,6.83-19.26,22.8,9.14,18.41,42.8,38.28,60.97,47.49,27.33,13.85,61.17,26.25,91.59,30.55,12.8,1.81,55.39,5.76,46.65-18.67-6.4-17.87-39.43-38.23-55.86-47-33.19-17.7-86.25-37.82-124.08-35.17Z"></path><path class="cls-1" d="M161.97,155.65c.88-3.4,1.11-6.9,1.96-10.32,3.16-12.78,11.28-24.49,21.88-32.19,4.88-3.55,10.35-6.09,15.95-8.29v-45.05l.47-.47h27.97l.47.47v42.41c12.77-.46,25.83,2.74,36.99,8.85,2.76,1.51,5.27,3.51,8.07,4.82v-56.55h28.59v127.7h-28.59c-.06-10.18.76-20.27-2.79-29.99-6.3-17.22-24.87-25.59-42.28-25.94-1.07,16.6,3.75,34.63-6.89,48.89-16.3,21.84-51.19,16.37-59.76-9.44-.89-2.67-1.13-5.47-2.03-8.07v-6.84ZM201.75,137.32c-2.73,1.9-5.23,5.28-6.89,8.18-2.53,4.41-5.84,12.48-2.8,17.2,2.04,3.17,6.92,2.82,8.9-.23.16-.24.79-1.57.79-1.7v-23.46Z"></path><path class="cls-1" d="M223.82,287.7c3.23-4.48,6.21-9.16,9.64-13.5,10.39-13.11,25.8-27.12,43.07-29.34,24.22-3.11,41.42,17.95,33.7,41.14-1.74,5.21-5.2,10.42-8.59,14.72-1.88,2.38-9.02,9.5-9.12,12.02-.18,4.55,5.37,1.73,7.63,1.72,12.99-.06,13.03,21.65,1.05,27.46-13.11,6.35-41.41,7.62-48.54-8.32s7.03-28.33,15.41-39.4c1.4-1.85,6.28-7.53,3.21-9.36-5.61-3.33-12.2,7.79-14.65,11.59-12.21,18.93-24.06,47.28-50.69,47.2-51.98-.15-17.3-71.7-5.71-96.12,4.46-9.4,11.57-24.94,17.85-32.8,8.82-11.04,34.14-9.32,45.4-3.19,11.63,6.34,1.68,12.66-3.48,18.38-6.55,7.26-12.61,15.84-17.87,24.08-6.83,10.7-13.17,22.14-18.33,33.72Z"></path><path class="cls-1" d="M803.4,57.24c8.51-.05,19.64-.94,27.84-.05,2.51.27,5.58,2,6.27,4.61.55,2.08.34,11.59.14,14.14-1.39,17.51-17.91,32.87-35.28,34.02l-77.05.34c-7.98,1.78-7.42,12.17.59,13.34l82.38-.02c3.29.23,6.1,2.7,6.37,6.06v51.3c-.53,3.56-3.2,5.69-6.7,6.04-19.94-1.06-41.51,2.96-60.52-4.11-23.13-8.61-39.62-30.91-40.96-55.68-1.13-20.77.88-42.54,0-63.41.27-3.4,3.27-6.25,6.68-6.37,30.07.13,60.19-.04,90.24-.21ZM724.44,83.94c-6.56,2.29-6.4,10.95.26,12.96l72.4.02c7.29-1.22,7.39-11.83,0-13.05l-72.66.07Z"></path><path class="cls-1" d="M626.24,54.45c7.5-.55,15.12.48,22.45,1.92,10.09,1.98,19.12,5.93,29.58,4.11,3.72-.65,9.43-3.05,12.84-3.04s4.29,2.62,4.52,5.45c1.11,14.18-.85,29.8-.01,44.13-.31,5.3-8.48,4.61-12.14,3.74-8.06-1.92-17.43-18.15-22.42-24.81-5.88-7.85-15.73-21.96-27.2-16.74-11.13,5.07,3.42,18.38,8.29,22.9,13.13,12.19,28.72,22.67,41.97,34.79,15.81,14.46,24.39,34.19,5.28,50.65-23.6,20.34-59.07,5.27-86.25,6.99-4.47.28-10.79,2.58-14.6,2.49-3.24-.07-6.46-2.8-5.37-6.29,3.48-13.43,4.67-28.37,8.4-41.63,1.01-3.6,2.12-5.65,6.25-5.18,7.25.81,19.97,14.05,24.9,19.54,6.58,7.33,14.82,20.95,25.52,21.71,6.16.44,11.72-3.27,9.28-9.9-3.67-9.97-29.48-27.31-38.53-34.81-18.96-15.72-39.38-36.49-20.35-61.34,6.88-8.99,16.22-13.85,27.59-14.68Z"></path><path class="cls-1" d="M509.76,210.95l-11.01,16.49c-9.91,15.86-20.1,32.08-27.37,49.39-4.24,10.11-14.99,39.05,3.45,40.97,12.06,1.25,31.6-12.01,41.24-18.97,17.79-12.85,34.13-27.97,49.94-43.13v84.82h-129.6v-129.1l.47-.47h72.88Z"></path><path class="cls-1" d="M330.04,57.54l103.12-.09c6.2.29,12.75,6.13,13.48,12.32.53,4.54.53,16.23.04,20.79-.39,3.56-2.96,9.8-3.89,13.82-4.25,18.38-5.41,39.38-.16,57.65.73,2.55,4.01,9.72,4.07,11.49.23,6.7-7.92,13.66-14.47,13.53h-99.79c-8.01-.55-13.95-5.43-15.07-13.52l.02-102.85c.82-6.7,6.01-12.03,12.66-13.13ZM403.71,70.61c-30.57,2.7-65.81,38.96-71.32,68.52-5.02,26.9,12.01,39.92,37.58,32.9,27.19-7.46,56.06-37.11,62.51-64.59,5.21-22.23-4.47-38.97-28.76-36.83Z"></path><path class="cls-1" d="M367.35,203.28c52.77-4.12,78.99,61.43,38.12,94.35-28.16,22.68-70.81,10.57-83.05-23.21-11.71-32.33,10.41-68.44,44.93-71.14ZM370.45,234.66c-14.91,1.3-24.06,17.21-17.61,30.78,7.4,15.58,29.45,16.49,38.12,1.54,8.74-15.07-3.25-33.82-20.51-32.32Z"></path><path class="cls-1" d="M515.04,72.69c6.22-5.25,12.72-10.36,20.09-13.94,24.95-12.09,47.79-.49,48,28.07.27,36.64-35.59,94.95-72.13,105.02-38.01,10.48-61.08-15.16-62.8-51.25-1.18-24.71,8.07-66.72,29.44-81.83,15.7-11.1,31.67-2.97,37.4,13.92ZM566.83,69.07c-6.14-6.32-16.08-4.78-23.41-1.72-9.45,3.95-17.61,11-24.99,17.91l-.26.61c1.88,11.86,1.01,36.63-9.87,44.24-8.04,5.63-20.06-1.41-20.92-10.67-.88-9.42,5.93-20.79,11.24-28.21,2.5-3.49,5.34-6.68,7.96-10.07-2.05-9.45-7.37-20.67-19.01-15.26-12.5,5.81-21.35,28.61-24.66,41.21-7.91,30.1-7.86,78.56,35.2,75.89,32.25-2,60.84-45.9,69.84-73.72,3.54-10.96,7.82-31.01-1.12-40.21ZM508.2,97.86c-3.45,4.39-7.17,10.03-9.02,15.37-.66,1.92-2.38,6.99.54,7.87,3.16.95,5.36-4.16,6.14-6.48,1.77-5.25,1.99-11.27,2.34-16.77Z"></path><rect class="cls-1" x="321.1" y="312.87" width="102.56" height="27.65"></rect><path class="cls-1" d="M406.49,120.92c.56.56.59,2.16-.24,2.57-1.12.55-4.95.57-6.59.87-10.69,1.98-23.48,9.73-31.33,17.15-1.05.99-4.25,4.95-4.97,5.28-1.17.53-2.43.1-2.48-1.27-.04-.84,3.72-5.35,4.48-6.68,3.21-5.55,4.98-12.96-3.22-14.75-1.05-.23-3.63-.18-4.37-.6-.94-.54-.75-2.32.32-2.79.69-.31,4.03-.34,5.33-.57,14.38-2.51,27.7-12.06,37.38-22.6,1.27-.92,2.7.59,2.29,1.97-.25.82-3.63,4.76-4.43,6.15-2.92,5.1-4.81,12.39,2.61,14.43,1.17.32,4.79.41,5.21.84Z"></path></svg> 