<?xml version="1.0" encoding="UTF-8"?> <svg xmlns="http://www.w3.org/2000/svg" id="Heaps_and_Stacks" data-name="Heaps and Stacks" viewBox="0 0 1000 400"><path d="M514.31,389.19h-28.37c-142.58-10.74-222.48-167.64-146.05-290.27,80.35-128.9,271.35-112.58,333.18,24.17,53.7,118.78-29.07,257.8-158.76,266.1ZM595.65,113.03v-39.72h-10.4v39.72h-40.67v9.46h40.67v40.67h10.4v-40.67h42.56v-9.46h-42.56ZM428.21,166.97l10.9,34.02,11.7-2.34-25.07-77.03-11.67,4.11,10.4,33.64-38.73,10.35-11.41-31.16-11.13,5.17,23.44,75.22,13.24-2.85-10.33-36.78,38.67-12.36ZM550.26,292.72c-8.21-19.42-28.3-30.48-49.4-25.27-10.23,2.53-18.74,12.56-16.39,23.44,3.47,16.06,29.09,17.88,41.69,22.62,7.14,2.69,13.61,6.42,12.57,15.37-.79,6.8-7.98,12.31-14.48,13.02-20.03,2.18-27.46-13.23-33.12-29.34-11.96,3.01-11.69,4.86-6.49,15.03,8.17,15.97,22.46,24.3,40.59,22.85,27.24-2.18,37.3-32.02,10.54-43.71-9.49-4.15-27.52-5.86-34.66-11.69-7.22-5.89-4.68-15.47,4.03-18.6,16.84-6.06,26.97,6.6,35.34,19.03l9.78-2.77Z"></path></svg> 