<?xml version="1.0" encoding="UTF-8"?> <svg xmlns="http://www.w3.org/2000/svg" id="Joan_Creative" data-name="Joan Creative" viewBox="0 0 1000 400"><defs><style> .cls-1 { fill: #2a1a1d; } </style></defs><path class="cls-1" d="M345.07,87.6l-10.35,8.53c-.85,9.26,1.1,13.08,9.05,21.94,89.54-81.32,230.8,10.88,182.32,125.01-27.62,65.03-106.23,83.79-165.74,48.87-89.49,61.37-133.23-26.49-185.4-83.51l57.8-42.52c-10.65,15.1-18.94,22.55-9.43,41.76,4.75,9.59,52.69,65.71,62.1,74.04,21.73,19.24,44.41,17.69,69.87,6.67-39.67-37.68-54.23-84.62-34.6-137.09-.69-4.44-32.18-43.98-37.12-48.15-18.46-15.59-52.37-11.81-64,10.4-4.94,9.43.13,23.52-10.65,21.7v-47.66h136.16ZM412.33,91.89c-24.48,3.27-45.77,19.49-56.2,41.7,44.64,43.49,55.5,99.88,12.96,149.78,36.45,39.3,114.46,22.68,127.57-28.89,4.19-16.49,3.64-81.8,1.62-100.53-4.44-41.18-46.39-67.35-85.94-62.07ZM348.48,182.91v62.97c0,2.67,12.81,28.88,15.32,28.87,16.7-20.14,18.92-44.2,5.82-67.03l-21.14-24.82Z"></path><path class="cls-1" d="M797.82,106.32c0-1.01-5.25-9.25-6.87-10.21l-13.57-1.72v-6.79h47.66l.03,6.79-13.57,1.72c-1.63.97-6.87,9.2-6.87,10.21v202.53l-153.18-180.41v93.61l71.48,86.8h-47.66l-23.8-30.63-.02,30.65-27.23-.05,17.88-14.39c3.27-7.05,4.3-15.61,2.51-22.41,0,0-34.15-41.39-45.93-58.48h-49.36v79.99l20.42,15.32h-51.06l16.99-8.54c1.61-1.52,6.84-12.22,6.84-13.58V91l102.12,119.14v-90.2c0-4.37-10.69-19.74-15.13-22.31-9.43-5.46-21.09,1.11-18.91-10.03h56.17l129.91,152.43,1.17-133.71ZM549.31,159.08v47.66l44.25-.03c-10.49-12.57-21.09-29.29-32.28-40.87-3.56-3.69-5.98-7.91-11.97-6.75Z"></path></svg> 