<?xml version="1.0" encoding="UTF-8"?> <svg xmlns="http://www.w3.org/2000/svg" id="LOVE" viewBox="0 0 1000 400"><defs><style> .cls-1 { fill: #010101; } </style></defs><path class="cls-1" d="M462.71,176.03c-22.71,1.36-20.93,43.14-3.16,45.71,19.66,2.84,23.28-13.27,21.32-29.33-1.16-9.5-8.14-16.98-18.16-16.38Z"></path><path class="cls-1" d="M669.15,207.24l8.91-15.59-10.27-14.73,5.98-16.93-12.74-12.66,2.86-17.73-14.79-10.18-.35-17.96-16.37-7.38-3.55-17.61-17.43-4.34-6.64-16.69-17.92-1.15-9.51-15.24-17.84,2.07-12.08-13.29-17.19,5.22-14.26-10.92-15.98,8.2-15.98-8.2-14.26,10.92-17.19-5.22-12.08,13.29-17.84-2.07-9.51,15.24-17.92,1.15-6.64,16.69-17.43,4.34-3.55,17.61-16.37,7.38-.35,17.96-14.79,10.18,2.86,17.73-12.74,12.66,5.98,16.93-10.27,14.73,8.91,15.59-7.48,16.33,11.55,13.75-4.44,17.4,13.82,11.47-1.26,17.92,15.65,8.82,1.96,17.85,16.97,5.88,5.11,17.22,17.75,2.76,8.11,16.03,17.95-.46,10.84,14.32,17.58-3.66,13.22,12.16,16.65-6.74,15.18,9.6,15.18-9.6,16.65,6.74,13.22-12.16,17.58,3.66,10.84-14.32,17.95.46,8.11-16.03,17.75-2.76,5.11-17.22,16.97-5.88,1.96-17.85,15.65-8.82-1.26-17.92,13.82-11.47-4.44-17.4,11.55-13.75-7.48-16.33ZM426.93,235.85h-54.06v-73.08h19.02v57.06h35.04v16.02ZM452.56,236.74c-35.81-8.4-33.93-70.68,3.15-75.71,23.6-3.2,42.31,8.06,45.01,32.55,3.32,30.07-18.37,50.15-48.16,43.16ZM538.58,235.85h-17.07l-24.51-73.08h19.52l14.01,50.06,15.02-50.06h18.52l-25.49,73.08ZM627.13,235.85h-57.06v-73.08h55.06v15.02h-36.04v12.01h33.03v16.02h-33.03v15.02h38.04v15.02Z"></path></svg> 