<?xml version="1.0" encoding="UTF-8"?> <svg xmlns="http://www.w3.org/2000/svg" id="Porto_Rocha" data-name="Porto Rocha" viewBox="0 0 1000 400"><defs><style> .cls-1 { fill: #2a1a1d; } </style></defs><path class="cls-1" d="M576.17,209.5c-.87-1.47-3.36-2.86-4.67-3.71,17.34-13.18,14.11-52.48-11.87-52.48h-49.68v92.74c0,.71,14.19.71,14.19,0v-36.01h31.81c12.18,0,8.93,36.01,11.47,36.01h15.29c-3.28-11.57-.42-26.25-6.54-36.56ZM553.09,195.86h-28.94v-28.37h30.03c16.23,0,17.59,28.37-1.09,28.37Z"></path><path class="cls-1" d="M784.45,187.13h-16.38c-.41,0-.72-5.17-2.57-7.8-17.34-24.68-52.99-9.67-52.86,20.34.13,30.36,34.29,46.59,53.07,21.65,2.37-3.15,2.97-9.1,3.45-9.1h15.29c-11.02,56-90.25,42.96-87.4-15.87,2.53-52.23,77.39-60.58,87.4-9.22Z"></path><path class="cls-1" d="M813.93,156.58v36.01h48.04v-36.01c0-.71,14.19-.71,14.19,0v89.47c0,.71-14.19.71-14.19,0v-39.28h-48.04v39.28c0,.71-14.19.71-14.19,0v-89.47c0-.71,12.68.52,14.19,0Z"></path><path class="cls-1" d="M29.93,210.05v36.01c0,.71-14.19.71-14.19,0v-92.74h49.68c31.21,0,29.59,56.74-1.09,56.74H29.93ZM29.93,195.86h28.94c18.68,0,17.32-28.37,1.09-28.37h-30.03v28.37Z"></path><path class="cls-1" d="M267.98,209.5c-.87-1.47-3.36-2.86-4.67-3.71,17.34-13.18,14.11-52.48-11.87-52.48h-49.68v92.74c0,.71,14.19.71,14.19,0v-36.01h31.81c12.18,0,8.93,36.01,11.47,36.01h15.29c-3.28-11.57-.42-26.25-6.54-36.56ZM244.89,195.86h-28.94v-28.37h30.03c16.23,0,17.59,28.37-1.09,28.37Z"></path><path class="cls-1" d="M366.24,155.5c-.52,1.52.71,14.18,0,14.18h-36.03v76.37c0,.71-14.19.71-14.19,0v-76.37h-36.03c-.71,0-.71-14.18,0-14.18h86.26Z"></path><path class="cls-1" d="M412.97,152.62c-25.68,0-46.5,21.18-46.5,47.3s20.82,47.3,46.5,47.3,46.5-21.18,46.5-47.3-20.82-47.3-46.5-47.3ZM413.2,233.64c-17.28,0-31.28-15.08-31.28-33.69s14.01-33.69,31.28-33.69,31.28,15.08,31.28,33.69-14.01,33.69-31.28,33.69Z"></path><path class="cls-1" d="M142.1,152.62c-25.68,0-46.5,21.18-46.5,47.3s20.82,47.3,46.5,47.3,46.5-21.18,46.5-47.3-20.82-47.3-46.5-47.3ZM142.33,233.64c-17.28,0-31.28-15.08-31.28-33.69s14.01-33.69,31.28-33.69,31.28,15.08,31.28,33.69-14.01,33.69-31.28,33.69Z"></path><path class="cls-1" d="M639.84,152.62c-25.68,0-46.5,21.18-46.5,47.3s20.82,47.3,46.5,47.3,46.5-21.18,46.5-47.3-20.82-47.3-46.5-47.3ZM640.08,233.64c-17.28,0-31.28-15.08-31.28-33.69s14.01-33.69,31.28-33.69,31.28,15.08,31.28,33.69-14.01,33.69-31.28,33.69Z"></path><path class="cls-1" d="M945.27,156.91h-17l-38.99,89.26h14.06l10.48-22.99h45.92l10.48,22.99h14.06l-38.99-89.26ZM920.94,208.96l15.83-37.12,15.83,37.12h-31.66Z"></path></svg> 