<?xml version="1.0" encoding="UTF-8"?> <svg xmlns="http://www.w3.org/2000/svg" id="Made_Thought" data-name="Made Thought" viewBox="0 0 1000 400"><g id="_8Oyrri" data-name="8Oyrri"><g><path d="M15,156.29l16.26.52,26.91,72.43,28.51-72.95h15.72v87.33h-11.19v-72.42l-27.23,71.57c-1.3,1.79-7.94.39-10.29.88l-27.51-72.45v72.42h-11.19v-87.33Z"></path><path d="M785.67,154.17c3.21.95,6.61,1.18,9.83,2.16,12.09,3.69,20.84,13.94,22.15,26.59h-10.93c-1.24-1.83-1.37-4.18-2.3-6.23-4.34-9.62-16.51-13.54-26.42-12.87-25.68,1.72-32.89,33.54-24.72,53.85,11.85,29.46,56.38,22.31,55.3-10.26h-28.25v-9.58h38.37v45.79h-7.46l-2.93-10.65c-4.24,5.48-9.59,8.97-16.26,10.91-2.64.77-5.37,1.1-7.99,1.87-2.6-.17-5.43.23-7.99,0-50.53-4.51-48.94-86.93-1.07-91.59h10.66Z"></path><path d="M605.53,154.17c2.13.82,4.54.83,6.81,1.45,39.32,10.74,40.2,75.77,1.99,88.02-3.08.99-6.22,1.38-9.34,2.12-2.94-.19-6.16.26-9.06,0-45.38-4.06-50.7-74.14-10.25-89.31l9.71-2.28h10.13ZM597.42,163.91c-36.89,3.36-36.56,69-.09,72.19,44.89,3.92,44.58-76.24.09-72.19Z"></path><path d="M687.07,245.75c-16.1-1.03-30.91-11.69-30.91-29.02v-60.44h11.73v61.5c0,.94,1.89,5.95,2.47,7.12,7.06,14.38,33.93,15.41,41.67,1.31.77-1.41,2.76-7.08,2.76-8.43v-61.5h11.73v61.5c0,15.97-14.56,26.65-29.31,27.96h-10.13Z"></path><polygon points="985 156.29 985 165.88 956.22 165.88 956.22 243.62 944.49 243.62 944.49 165.88 915.18 165.88 915.18 156.29 985 156.29"></polygon><path d="M201.54,243.62v-87.33c21.4,1.07,52.37-5.56,65.78,16.02,9.09,14.62,8.08,44.29-2.67,57.95-5.28,6.71-17.48,13.36-26.07,13.36h-37.04ZM212.73,234.04h23.72c32.67,0,35.82-68.16,0-68.16h-23.72v68.16Z"></path><polygon points="486.14 156.29 486.14 193.3 486.94 194.1 532.51 194.1 532.51 156.29 544.24 156.29 544.24 243.62 532.51 243.62 532.51 203.69 486.14 203.69 486.14 243.62 474.95 243.62 474.95 156.29 486.14 156.29"></polygon><polygon points="348.1 156.29 348.1 165.88 299.87 165.88 299.07 166.68 299.07 193.3 299.87 194.1 344.91 194.1 344.91 203.69 299.07 203.69 299.07 234.04 348.64 234.04 348.64 243.62 287.88 243.62 287.88 156.29 348.1 156.29"></polygon><path d="M192.48,243.62h-12.79l-9.11-26.04-37.01-.09-10.64,26.13h-11.46l34.09-87.08c2.11-.17,12.16-.82,13.08.29l33.84,86.8ZM166.36,207.41l-14.92-40.47-14.4,40.47h29.31Z"></path><polygon points="462.69 156.29 462.69 165.88 433.38 165.88 433.38 243.62 421.65 243.62 421.65 165.88 392.34 165.88 392.34 156.29 462.69 156.29"></polygon><polygon points="847.49 156.29 847.49 193.3 848.29 194.1 893.86 194.1 893.86 156.29 905.59 156.29 905.59 243.62 893.86 243.62 893.86 203.69 847.49 203.69 847.49 243.62 836.3 243.62 836.3 156.29 847.49 156.29"></polygon></g></g></svg> 