<?xml version="1.0" encoding="UTF-8"?> <svg xmlns="http://www.w3.org/2000/svg" id="Mother_Design" data-name="Mother Design" viewBox="0 0 1000 400"><g id="amrIaG.tif"><g><path d="M37.22,138.81l37.12,92.05,36.7-92.05h17.72v108.93h-16.03v-74.31l-30.36,73.9c-3.46.26-14.99,1.63-16.82-.93l-29.6-72.13v73.46h-16.03v-108.93h17.3Z"></path><path d="M541.34,247.74v-108.93h39.23c7.65,0,22.69,6.11,29.05,10.61,27.28,19.28,27.3,68.25-.02,87.69-6.44,4.59-20.38,10.63-28.19,10.63h-40.08ZM557.37,232.54h22.36c5.5,0,18.71-6.15,22.77-10.14,12.44-12.23,13.31-40.93,2.94-54.43-5.51-7.18-18.34-13.95-27.4-13.95h-19.83l-.84,78.53Z"></path><path d="M883.05,234.23c-4.76,4.86-9.06,9.64-15.98,11.45-17.36,4.54-36.17-6.25-42.25-22.83-14.12-38.48,27.79-73.61,58.22-42.66v-9.29h16.04c-.97,23.21,1.28,47.44.03,70.54-.81,14.97-4.11,29.13-18.69,36.18-19.92,9.63-55.98,2.69-53.9-24.81h14.34c1.11,20.25,34.23,21.19,40.31,3.61.45-1.31,1.88-6.48,1.88-7.41v-14.78ZM844.54,188.94c-10.5,10.66-8.35,35.26,6.45,41.5,21.94,9.25,38.34-12.02,31.26-32.97-5.28-15.62-26.27-20.15-37.71-8.52Z"></path><path d="M292.45,138.81v43.91c9.23-11.81,22.54-17.71,37.36-12.48,7.8,2.75,16.64,12.84,16.64,21.35v56.15h-16.03v-51.93c0-.37-2.19-5.03-2.67-5.78-5.49-8.47-18.79-8.7-26.44-3.09-2.94,2.16-8.86,10.52-8.86,13.93v46.87h-16.03v-108.93h16.03Z"></path><path d="M431.66,222.41c-9.02,33.24-56.17,37.24-71.88,6.5-9.65-18.89-4.1-44.05,14.58-54.98,20.76-12.15,49.65-3.84,56.21,20.45,1.35,5,3.15,14.49.67,18.75h-57.37c-.28,0-.93-.9-1.59-.78-3.15.6,1.04,11.27,2.49,13.39,10.74,15.74,34.37,12.99,42.98-3.32h13.92ZM417.32,200.46c-4.99-26.26-40.16-24.89-46.4,0h46.4Z"></path><path d="M714.3,212.28h-60.75c-1.35,26.08,35.71,32.86,45.56,10.13h15.19c-13.19,40.85-74.13,34.55-76.82-9.67-3.53-58.16,82.32-59.43,76.82-.46ZM699.12,200.46c-3.24-26.37-40.78-24.73-45.56,0h45.56Z"></path><path d="M150.21,238.92c-16.01-14.1-16.09-44.12-.8-58.75,24.58-23.52,68.23-10.06,71.21,25.04,3.32,39.17-42.02,58.71-70.41,33.71ZM162.8,188.92c-15.4,13.7-9.15,43.49,12.04,46.06,33.97,4.13,39.75-42.41,11.97-50.83-7.92-2.4-17.69-.86-24.01,4.77Z"></path><path d="M980.07,247.74h-15.19v-49.4c0-3.65-3.2-10.05-6.32-12.25-11.14-7.82-26.04-1.01-30.01,11.35-.35,1.09-1.64,6.14-1.64,6.81v43.49h-15.19v-76.84h15.19v11.82c9.44-11.72,23.05-18.11,37.96-12.23,6.31,2.49,15.2,11.52,15.2,18.57v58.69Z"></path><path d="M782.64,192.01h-12.66c.29-14.46-30.88-15.18-30.32-2.18.45,10.48,21.77,11.47,29.47,14.44,25.55,9.84,18.73,40-5.85,44.79-20.97,4.09-41.33-7.13-41.39-30.02h14.34c.96,10.45,8.24,17.42,18.84,17.4,8.1-.02,18.7-5.93,13.95-15.18-5.11-9.96-32.49-5.75-40.75-20.85-19.34-35.36,55.07-45.87,54.36-8.39Z"></path><path d="M248.57,149.79v21.11h16.87v12.67h-16.87v46.02c0,6.35,11.56,6.67,16.03,5.49v13.51c-9.91,1.43-22.09,2.91-28.68-6.34-1.01-1.41-3.38-6.2-3.38-7.59v-51.09h-10.97v-12.67h10.97v-21.11h16.03Z"></path><path d="M485.66,168.37v16.04c-9.06-1.7-18.91,1.22-23.8,9.54-.92,1.57-3.2,8-3.2,9.46v44.33h-16.03v-76.84h16.03v11.82l6.31-7.62c5.54-5.16,13.25-7.07,20.69-6.74Z"></path><rect x="795.3" y="170.9" width="16.03" height="76.84"></rect><path d="M800.99,143.23c14.07-2.45,17.54,17.58,5.34,20.55-15.29,3.72-18.54-18.25-5.34-20.55Z"></path></g></g></svg> 