<?xml version="1.0" encoding="UTF-8"?> <svg xmlns="http://www.w3.org/2000/svg" id="Pentagram" viewBox="0 0 1000 400"><g id="pDR4nO.tif"><g><path d="M842.24,181.88l2.18-8.93c1.7-5.46,4.52-11.42,9.61-14.45,6.86-4.09,20.23-3.21,27.27.24,8.45,4.14,12.06,12.99,12.39,22.05l1.81-7.11c5.51-27.01,47.9-22.56,50.31,3.7,1.74,18.91-1.28,40.23.03,59.34.26,3.76.58,4.92,4.38,5.83,3.31.79,7.2.87,10.6.89v1.82h-49.26v-1.82h6.02c.24,0,2.29-.42,2.76-.53,3.49-.78,6.2-1.86,6.14-5.9-.62-19.2,1-39.11.04-58.23-.46-9.3-2.4-23.75-15.34-20.42-12.59,3.24-15.4,23.89-17.15,34.61.82,14.5-1.04,30.1,0,44.47.1,1.34.13,2.61,1.09,3.65,2.22,2.38,10.6,2.18,13.89,2.71v1.82h-49.62v-1.82c3.44-.06,11.12-.26,13.86-2.37,1.15-.89,1.39-4.65,1.48-6.17,1.07-17.84-.84-36.72,0-54.67-.4-9.56-1.77-25.9-15.62-22.12-7.9,2.15-11.51,11.46-13.48,18.6-5.45,19.76-2.1,40.79-3.04,61.11.07.98.13,2.49.76,3.25,1.71,2.06,11.41,2.4,14.22,2.38v1.82h-53.64v-1.82c3.09.04,6.23,0,9.3-.37,1.23-.15,7.14-1.19,7.83-1.65.45-.3,1-1.63,1.09-2.19.57-24.3.76-48.83-.07-73.1-1.35-3.13-3.02-4.17-6.33-4.61-3.65-.48-7.76-.34-11.45-.41v-1.83s37.95-3.09,37.95-3.09v25.32Z"></path><path d="M95.74,184.06v52.27c0,.71.85,3.1,1.44,3.67,4.05,3.94,26.38,3.07,32.5,3.44v1.82H39.19v-1.82s14.77-.37,14.77-.37c3.53-.59,14.02-.6,15.5-4.56.74-1.98.1-4.45.76-6.53-1.38-35.69,1.78-72.68,0-108.22-.08-1.67-.37-6.09-1.03-7.35-.81-1.55-5.21-2.59-6.94-2.9-7.36-1.32-15.57-.98-23.06-1.2v-1.83s84.48-.01,84.48-.01c19.43.62,42.75,8.57,48.51,29.16,3.74,13.38-.07,25.06-10.59,33.86-18.02,15.07-44.14,9.47-65.85,10.57ZM95.74,182.61c19.12-.83,44.47,5.18,50.17-19.3,1.78-7.64,1.9-18.98.44-26.67-4.43-23.25-22.48-25.76-43.14-24.35-1.62.11-5.53.55-6.53,1.85-.27.35-.93,2.39-.93,2.71v65.75Z"></path><path d="M592.31,152.55c.19-2.29,1.02-6.06,2.12-8.08,2.97-5.43,14.5-6.99,18.31-1.75,2.45,3.37,1.7,10.5-2.91,11.66-8.07,2.05-11.72-4.18-8.4-11.12-8.71,1.07-7.05,12.21-6.5,18.52,20.79,9.46,24.56,34.3,4.06,46.98-9.82,6.08-20.58,7.54-31.92,5.78-4.88-.75-8.52-2.82-13.61-2.43-7.28.56-14.83,5.31-13.3,13.64.47,2.54,5.68,4.34,7.93,4.83,21.28,4.59,69.19-8.04,69.32,26.88.12,32.21-38.12,35.7-62.03,29.58-7.92-2.03-20.32-7.84-23.45-15.93-4.99-12.92,11.42-17.25,20.61-19.67-.04-.44-.5-.61-.84-.8-2.57-1.4-5.81-2.28-8.53-3.87-8.07-4.74-11.46-11.88-9.81-21.21,1.71-9.68,10.16-15.84,19.9-15.28-3.03-2.23-6.08-4.02-8.58-6.91-8.24-9.52-6.82-23.87,1.09-33.16,11.28-13.23,30.78-16.93,46.52-9.83.15-2.55-.21-5.31,0-7.83ZM573.63,158.31c-17.38,1.79-17.33,27.25-15.14,40.04,1.68,9.77,4.83,14.61,15.4,15.22,15.69.9,19.36-11.48,19.88-24.59.55-13.93-1.84-32.56-20.14-30.67ZM549.02,256.32c-6.9,6.78-5.21,21.94,3.51,26.65,15.57,8.41,57.65,8.13,55.82-17.49-.58-8.13-4.7-12.08-12.39-13.86-10.28-2.38-39.13-2.99-46.95,4.69Z"></path><path d="M296.41,181.88l2.64-9.2c2.79-6.57,7.85-14.98,15.46-16.26,15.13-2.54,33.95,3.23,35.53,20.91,1.69,18.92-1.35,40.26,0,59.38.31,4.44.56,5.42,5.04,6.26,3.96.74,8.46.8,12.49.83v1.82h-53.64v-1.82c2.72.08,5.46-.07,8.16-.41,3.55-.45,8.78-.66,8.62-5.24-.76-19.94,1.02-40.63.02-60.48-.5-9.88-3.25-23.37-16.52-19.01-6.39,2.1-10.29,9.13-12.75,14.95-8.51,20.17-3.85,42.83-5.06,64.19-.33,7.2,10.58,5.36,15.34,5.99v1.82h-53.27v-1.82c4.15.09,8.34-.14,12.42-.9,2.17-.4,5.32-.55,5.74-3.01l-.2-74.31c-.71-.76-1.3-2.46-2.16-2.95-3.23-1.83-11.94-1.15-15.8-1.52v-1.83s37.95-3.28,37.95-3.28v25.86Z"></path><path d="M529.55,208.1c.03,4.92-.04,9.85-.02,14.77.03,5.66.91,13.06-2.03,18.34-3.78,6.77-18.41,6.94-24.87,4.88-6.86-2.19-9.79-8.08-11.21-14.68-5.48,13.11-17.35,16.3-30.66,15.32-21.85-1.61-28.13-26.55-12.58-40.27,9.91-8.74,18.83-7.59,30.72-9.76,4-.73,9.15-1.38,10.78-5.62,1.36-3.53,1.16-17.46.84-21.78-.45-6.11-1.93-9.84-8.32-11-8.85-1.62-21.95.86-25.63,10.11,12.86-2.06,15.04,18.37,2.65,20.31-13.8,2.17-16.96-15.05-8.5-23.79,12.61-13.03,57.2-13.81,58.77,10.57,1.2,18.59-1.24,38.61-.01,57.2.38,5.78,2.14,12.55,9.5,11.31,4.49-.75,6.28-4.95,7.11-8.93,1.75-8.39.53-17.51.9-26.06.14-1.3,1.57-.88,2.56-.91ZM490.15,226.13v-31.14c-5.4,6.2-14.78,3.24-21.27,6.99-9.76,5.65-10.37,19.18-9.74,29.25.63,9.9,3.39,16.82,14.88,13.77,7.6-2.02,15.26-11.09,16.13-18.86Z"></path><path d="M800.64,208.1c.03,4.92-.04,9.85-.02,14.77.03,5.91.99,12.53-1.91,18.09-3.31,6.33-13.88,6.62-20.14,6.11-9.54-.78-14.24-6.75-16.06-15.66-5.38,13.12-17.44,16.29-30.66,15.32-21.98-1.62-28.1-26.85-12.38-40.44,9.85-8.51,18.75-7.44,30.52-9.6,4.33-.79,9.5-1.4,10.99-6.15,1.17-3.74,1.02-21.08.09-25.07-1.12-4.79-3.3-6.42-8.08-7.23-7.48-1.27-18.19.48-23.28,6.55-.46.54-2.86,3.64-1.48,3.62,4.73-.09,7.65,1,9.58,5.72,4.14,10.15-7.07,18.89-15.73,12.79-9.68-6.82-4.42-20.3,4.39-25.36,14.76-8.49,52.54-9.24,54.13,13.57,1.29,18.54-1.16,38.58-.01,57.2.32,5.11,1.25,11.31,7.52,11.81,5.66.46,8.09-4.37,9.09-9.06,1.78-8.39.51-17.51.9-26.06.14-1.3,1.57-.88,2.56-.91ZM760.87,194.99c-5.15,6.03-14.26,3.37-20.55,6.62-9.94,5.13-10.99,18.26-10.48,28.18.53,10.11,2.55,18.49,14.89,15.2,6.49-1.73,16.13-11.19,16.13-18.13v-31.87Z"></path><path d="M405.87,114.49v43.89l.55.55h23.53v5.83h-24.08l-.02,62.85c.17,8.47,2.09,19.13,13.22,16.45,5.8-1.4,7.79-6.14,8.88-11.53,2.03-10.03.76-20.8,1.48-30.98h1.62c.03,5.17-.04,10.34-.02,15.5.04,9.81,1.67,23.75-9.37,28.5-14.3,6.16-35.86-.15-35.86-18.32v-62.84h-16.42l.05-1.77c21.86-5.24,32.96-26.95,33.15-48.14h3.29Z"></path><path d="M251.17,201.91h-53.63c-.36,13.15.79,41.22,18.43,42.98,19.45,1.94,35.02-14.49,34.11-33.51h1.46c.46,23.02-17.6,37.32-39.96,35.71-10.18-.73-20.19-7.37-26.43-15.14-22.17-27.6-3.63-79.85,35.19-75.93,23.22,2.34,31.55,25.4,30.84,45.89ZM233.65,200.09c-.8-10.17-.22-32.14-8.58-39.33-4.04-3.47-10.56-2.98-15.13-.92-12.31,5.55-12.45,28.82-12.4,40.25h36.12Z"></path><path d="M664.92,182.24l2.74-9.46c4.9-12.1,16.76-21.77,29.7-13.64,10.44,6.56,9.27,25.57-4.17,25.57-10.44,0-12.97-12.86-6.76-19.78,2.08-2.32,2.5-1.98,5.3-2.36,1.36-.18-.3-2.12-.72-2.56-3.89-4.04-10.26-1.78-13.87,1.48-18.62,16.86-10.33,53.22-12.25,75.59.39,4.92,2,5.17,6.5,5.9,4.6.74,9.66.75,14.31.83v1.82h-60.93v-1.82c4.78.09,9.58-.03,14.3-.84,4.87-.84,6.15-.53,6.52-5.88,1.52-22.09-1.18-45.88,0-68.15.05-2.88-1.22-5.03-3.57-6.64-5.62-1.2-11.5-1.09-17.25-1.17v-1.83s40.14-3.28,40.14-3.28v26.23Z"></path></g></g></svg> 