<?xml version="1.0" encoding="UTF-8"?> <svg xmlns="http://www.w3.org/2000/svg" id="Prophet" viewBox="0 0 1000 400"><defs><style> .cls-1 { fill: #2a1a1d; fill-rule: evenodd; } </style></defs><g id="Symbols"><g id="Top-Nav-_-Default-_-white" data-name="Top-Nav-/-Default-/-white"><g id="Group"><path id="Clip-599" class="cls-1" d="M87.6,143.03c27.51,0,40.86,15.83,40.86,35.72s-12.42,35.75-40.86,35.75h-.03s-3.23,0-3.23,0c-.34,0-.7,0-1.08,0h-17.77s-.93,0-.93,0h-19.55c-.33,0-.63,0-.91,0h-2.02c-1.28,0-2.06.91-2.24,2.08l-.04.52v39.9H10.42v-113.96h77.18ZM85.43,166.94h-45.63v23.65h4.01s.48,0,.48,0h3.95c.42,0,.85,0,1.29,0h5.75c.51,0,1.03,0,1.55,0h19.34s.75,0,.75,0h3.58c1.82,0,3.48-.01,4.92-.02,10.94,0,13.55-7.42,13.55-11.84,0-5.87-3.87-11.82-13.55-11.82Z"></path><polygon id="Clip-602" class="cls-1" points="989.58 143.03 989.58 166.83 943.35 166.83 943.35 257 913.96 257 913.96 166.83 867.98 166.83 867.98 143.03 989.58 143.03"></polygon><polygon id="Clip-605" class="cls-1" points="726.5 143.03 844.47 143.09 844.47 166.83 755.82 166.83 755.82 188.28 834.95 188.28 834.95 211.84 755.78 211.84 755.78 233.16 844.52 233.16 844.52 256.99 726.5 256.99 726.5 143.03"></polygon><polygon id="Clip-608" class="cls-1" points="608.99 143.03 608.99 187.04 668.17 187.04 668.17 143.03 697.52 143.03 697.52 257 668.23 257 668.23 212.82 609.15 212.82 609.15 257 579.59 257 579.59 143.03 608.99 143.03"></polygon><path id="Clip-611" class="cls-1" d="M515.28,143.03c27.51,0,40.86,15.83,40.86,35.72s-12.42,35.75-40.86,35.75c0,0-.03,0-.1,0h-3.15c-.34,0-.7,0-1.08,0h-17.78c-.62,0-1.24,0-1.86,0h-18.62c-.33,0-.63,0-.91,0h-2.02c-1.46,0-2.27,1.18-2.27,2.59h0v39.9h-29.38v-113.96h77.18ZM513.11,166.94h-45.63v23.65h4.01c.31,0,.64,0,.98,0h3.45c.42,0,.85,0,1.29,0h5.75c.51,0,1.03,0,1.55,0h19.34c.5,0,1,0,1.49,0h2.84c1.82,0,3.48-.01,4.92-.02,10.94,0,13.55-7.42,13.55-11.84,0-5.87-3.87-11.82-13.55-11.82h0Z"></path><path id="Clip-614" class="cls-1" d="M351.81,139.32c33.19,0,62.84,22.03,62.84,60.71s-28.06,60.65-62.84,60.65c-37.8,0-62.86-25.56-62.86-60.65,0-37.85,28.27-60.71,62.86-60.71ZM351.81,164.89c-19.95,0-33.4,12.64-33.4,35.14,0,21.2,12.15,35.08,33.4,35.08,23.26,0,33.38-16.56,33.38-35.08,0-23.25-14.45-35.14-33.38-35.14Z"></path><path id="Clip-617" class="cls-1" d="M228.87,143.03c27.51,0,40.86,15.83,40.86,35.72,0,16.12-8.88,30.53-28.79,34.6h0l32.43,43.64h-30.88c-1.74,0-2.74-.67-4.11-2.52-4.48-6.09-24.31-33-27.28-37l-.35-.47c-1.51-1.96-2.23-2.5-4.58-2.5h-22.83c-1.46,0-2.27,1.17-2.27,2.59h0v39.9h-29.38v-113.96h77.17ZM227.58,166.94h-45.63v23.65h4.01c.31,0,.64,0,.98,0h3.45c.42,0,.85,0,1.29,0h5.75c.51,0,1.03,0,1.55,0h19.34c.5,0,1,0,1.49,0h2.84c1.82,0,3.48-.01,4.92-.02,10.94,0,13.55-7.42,13.55-11.84,0-5.87-3.87-11.82-13.55-11.82h0Z"></path></g></g></g></svg> 