<?xml version="1.0" encoding="UTF-8"?> <svg xmlns="http://www.w3.org/2000/svg" id="Ragged_Edge" data-name="Ragged Edge" viewBox="0 0 1000 400"><defs><style> .cls-1 { fill: #2a1a1d; } </style></defs><rect class="cls-1" x="992.72" y="179.56" width=".41" height="8.15"></rect><path class="cls-1" d="M857.41,221.56v.41h-7.81v-.41c2.58.05,5.24.09,7.81,0Z"></path><path class="cls-1" d="M849.59,221.56c-12.47-.26-31.07-2.4-40.91-10.61-8.13-6.79-7.98-15.54.19-22.21,17.69-14.47,70.34-13.32,89.53-1.9,2.69,1.6,5.99,4.02,7.13,7h-28.38c-.07,0-.05-.76-.6-1.22-9.62-8.25-38.66-9.2-45.64,2.48-6.99,11.71,10.62,17.67,19.3,18.31,9.75.72,23.02-.93,30.64-7.33h-28.79v-8.15h53.88v22.42h-17.89c-1.23-.92-2.76-5.68-4.09-5.71-.51-.01-5.22,2.59-6.4,3.05-6.56,2.59-13.1,3.62-20.15,3.88-2.57.09-5.24.05-7.81,0Z"></path><path class="cls-1" d="M406.23,193.83h-28.17c-.17,0-1.96-2.06-2.48-2.44-8.55-6.14-25.63-6.38-35.26-2.77-16.13,6.04-12.1,19.25,2.99,23.34,11.64,3.16,28.54,1.67,38.25-5.91h-28.79v-8.15h53.47v22.42h-18.1c-.31-1.13-2.54-5.69-3.48-5.71-.86-.01-5.08,2.53-6.4,3.05-16.08,6.37-45.29,4.72-61.14-2.16-18.27-7.94-18.52-23.22-.12-31.25,20.04-8.75,65.46-8.93,83.77,3.77,2.22,1.54,4.38,3.23,5.46,5.8Z"></path><path class="cls-1" d="M299.7,193.83h-28.17c-.17,0-1.96-2.06-2.48-2.44-9.25-6.65-29.14-6.69-38.86-1.04s-8.84,14.59.88,19.53c10.35,5.26,28.47,4.38,38.89-.49l5.07-3.33h-28.79v-8.15h53.47v22.42h-18.1l-3.15-5.74c-.96-.2-4.34,2.01-5.62,2.55-17.01,7.15-49.94,5.64-66.09-3.53-13.62-7.74-13.2-20.29.41-27.74,19.32-10.58,61.01-9.93,81.02-1.2,4.42,1.93,9.27,4.79,11.53,9.16Z"></path><path class="cls-1" d="M6.87,179.56l70.96-.02c6.12.77,22.17.96,23.53,8.88,1.26,7.34-5.26,10.42-11.24,11.92-.69.17-1.2-.41-1,.82,3.35-.04,7.5,1.54,9.23,4.51.22.38,1.05,2.01,1.05,2.22v12.44h-24.68v-11.62c0-.52-2.15-2.65-2.67-2.65H31.54v14.27H6.87v-40.77ZM31.54,197.91h36.4c1,0,5.27-1.04,6.25-1.55,3.32-1.72,3.6-6.01.13-7.63-.36-.17-2.93-1.01-3.09-1.01H31.54v10.19Z"></path><path class="cls-1" d="M703.18,220.34v-40.77l61.92-.02c11.41.76,35.47,6.34,34.75,21.03s-26.65,19.45-38.04,19.77l-58.63-.02ZM727.85,212.18c10.81-.46,22.4.95,33.06-.86,7.42-1.26,12.94-4.49,12.2-12.81-.53-5.95-5.53-8.46-10.78-9.7-10.75-2.52-23.42-.36-34.48-1.09v24.46Z"></path><path class="cls-1" d="M497.53,220.34v-40.77l61.92-.02c11.34.69,36,6.61,34.75,21.44-1.18,14.04-26.76,19.04-38.04,19.36l-58.63-.02ZM522.21,212.18c10.81-.46,22.4.95,33.06-.86,6.31-1.07,11.92-3.61,12.2-10.74.26-6.6-3.53-9.74-9.48-11.43-10.94-3.11-24.42-.61-35.78-1.43v24.46Z"></path><polygon class="cls-1" points="493.42 179.56 493.42 187.72 435.84 187.72 435.84 195.87 492.19 195.87 492.19 204.03 435.84 204.03 435.84 212.18 493.42 212.18 493.42 220.34 411.16 220.34 411.16 179.56 493.42 179.56"></polygon><polygon class="cls-1" points="699.06 179.56 699.06 187.72 641.48 187.72 641.48 195.87 697.83 195.87 697.83 204.03 641.48 204.03 641.48 212.18 699.06 212.18 699.06 220.34 616.81 220.34 616.81 179.56 699.06 179.56"></polygon><polygon class="cls-1" points="992.72 179.56 992.72 187.72 935.14 187.72 935.14 195.87 991.49 195.87 991.49 204.03 935.14 204.03 935.14 212.18 992.72 212.18 992.72 220.34 910.46 220.34 910.46 179.56 992.72 179.56"></polygon><path class="cls-1" d="M203.46,220.34h-27.14c-.61-1.36-4.78-7.82-5.63-8.08l-36.52-.07c-1.71.33-4.94,6.8-6.59,8.15h-26.12l31.67-40.57,37.66-.23,1.2.44,31.47,40.36ZM164.8,204.03l-12.14-17.94-12.95,17.94h25.09Z"></path></svg> 