<?xml version="1.0" encoding="UTF-8"?> <svg xmlns="http://www.w3.org/2000/svg" id="Robot_Food" data-name="Robot Food" viewBox="0 0 1000 400"><defs><style> .cls-1 { fill: #2a1a1d; } </style></defs><path class="cls-1" d="M474.46,11.06c192.61-19.54,294.43,214.39,146.77,336.05-113.55,93.56-290.93,25.77-311.12-120.18-14.1-101.95,60.1-205.31,164.35-215.88ZM485.48,35.28c-116.14,10.1-187.58,133.89-134.65,238.98,59.41,117.96,229.91,121.76,293.94,6.15,64.33-116.15-27.68-256.57-159.29-245.13Z"></path><path class="cls-1" d="M445.45,142.47c48.18,0,54.53,58.35,18.49,75.93l26.37,38.5-28.63-1.06-22.44-33.67-21.57-.46v35.22h-26.41v-114.45h54.17ZM417.69,199.69c23.11,0,45.57,3.86,45.57-18.37,0-19.81-17.42-16.84-45.57-16.84v35.22Z"></path><polygon class="cls-1" points="606.97 142.47 606.97 164.48 545.34 164.48 545.34 190.89 600.37 190.89 600.37 212.9 545.34 212.9 545.34 256.92 518.93 256.92 518.93 142.47 606.97 142.47"></polygon></svg> 