<?xml version="1.0" encoding="UTF-8"?> <svg xmlns="http://www.w3.org/2000/svg" id="R_GA" data-name="R/GA" viewBox="0 0 1000 400"><defs><style> .cls-1 { fill: #2a1a1d; } </style></defs><polygon class="cls-1" points="334.18 138.17 334.18 262.61 209.7 262.61 208.41 261.32 208.41 138.17 334.18 138.17"></polygon><path class="cls-1" d="M362.6,138.17c1.58-.4,3.04-.77,4.7-.9,17.13-1.34,43.91-1.01,61.24,0,25.48,1.48,43.67,17.06,38.09,44.04-2.33,11.27-9.76,16.92-18.75,22.93,6.37,1.16,11.85,6.93,14.45,12.64,4.88,10.72,2.78,22.91,4.59,34.05.68,4.17,2.68,7.63,3.36,11.67h-26.7c-5.95-13.02.69-40.08-14.43-46.98-.72-.33-5.5-1.94-5.81-1.94h-33.16v48.92h-26.27l-1.29-1.29v-123.15ZM425.92,158.77c-10.33-1.45-23.77,1.07-34.46,0l-1.29,1.29v33.9h37.47c4.26,0,10.11-6.03,11.38-10.12,3.36-10.75-.82-23.35-13.11-25.07Z"></path><path class="cls-1" d="M627.92,178.51c-3.22-22.87-34.82-27.17-49.44-11.92-16.41,17.11-15.56,61.67,7.77,72.75,19.64,9.33,45.44-.19,45.12-23.92h-27.57v-19.31l1.29-1.29h49.96l1.29,1.29v66.51h-17.23l-2.59-12.87c-1.31-.94-6.77,5.73-8.2,6.84-16.99,13.22-44.6,10.47-61.84-1-38.14-25.36-35.06-95.81,7.44-114.99,26.41-11.92,63.16-5.83,76.28,22.14,1.36,2.91,4.34,10.97,4.25,13.83-.03,1.05-.33,1.33-1.13,1.94h-25.41Z"></path><path class="cls-1" d="M670.13,262.61l46.46-123.85c1.56-2.08,20.19-1.69,23.78-1.48,1.69.1,4.59-.14,5.56,1.55l45.66,123.78h-27.13l-10.47-27.54-45.95-.36c-3.41,1.63-7.93,24.05-11.63,27.89h-26.27ZM746.8,214.55l-15.94-45.47-15.94,45.47h31.87Z"></path><path class="cls-1" d="M543.5,134.74l-52.34,128.5c-1.61,3.43-6.45,1.5-9.68,1.94l53.2-128.5c1.46-3.29,5.79-1.6,8.82-1.94Z"></path></svg> 