<?xml version="1.0" encoding="UTF-8"?> <svg xmlns="http://www.w3.org/2000/svg" id="Thirst" viewBox="0 0 1000 400"><defs><style> .cls-1 { fill: #2a1a1d; } </style></defs><path class="cls-1" d="M516.64,164.32c7.61-4.51,15.58-12.76,20.26-20.15,4.16-6.58-2.28-14.75-9.62-12.17-10.21,3.58-18.92,12.3-22.5,22.51-2.51,7.18,5.32,13.68,11.87,9.81Z"></path><path class="cls-1" d="M787.96,66.8l19.67-35.47c-1.54-1.45-36.12,9.18-40.35,12.83l-13.45,23.28c-37.33.85-74.74,9.84-106.8,29.23-9.53,5.92-18.89,12.53-26.48,20.86,38.47-15.53,79.09-24.37,120.22-27.47l-48.69,84.32-9.14-31.31c-2.97-15.56,12.26-21.36,21.84-30.41,1.48-1.4.24-3.89-1.77-3.55-29.03,5.01-53.07,26.84-71.5,48.72-10.01,11.88-24.82,42.65-39.03,45.39-18.87,3.64-9.66-15.3-3-25.05,7.44-10.89,18.63-21.22,27.85-31.82,1.6-1.85-.55-4.53-2.7-3.35l-31.82,17.51-28.29,6.57v-9.3c0-2.98-2.43-5.4-5.41-5.39h-3.95c-2.95.01-5.34,2.38-5.39,5.32l-.06,4c-.03,2.06,1.11,3.95,2.94,4.89l4.73,2.42c-2.11,27.45-38.17,65-46.06,64.05-11.21-3.23-2.53-17.92,2.45-26.88,4.5-8.1,14.82-18.58,17.71-26.32,1.77-4.74-.49-6.65-5.37-5.37-4.5,1.17-23.05,8.29-26.01,10.69-16.39,13.29-26.7,62.91-51.08,66.33-5.68.8-6.42.04-5.64-5.64,1.91-13.73,27.96-35.71,18.02-50.82-9.42-14.33-32.36,3.98-41.8,12.36-4.29-1.26-1.29-8.07-.18-11.19,4.19-11.75,14.4-23.26,17.09-36.11,19.1-1.94,41.51-10.58,56.51-22.35,11.49-9.02,23.82-20.91,20.14-36.72-3.95-10.87-37.08,3.87-54.84,16.71-6.98,5.04-12.03,15.19-20.31,16.38-77.51.02-194.1-40.15-260.57,14.57-32.7,26.92-40.97,76.58-5.54,104.67,26.1,20.69,65.49,15.47,90-5.54,4.47-3.84,16.87-14.02,10.97-18.38-31.86,27.17-88.82,4.4-65-39.32,16.83-30.88,92.33-32.74,123.55-30.25l23.98,7.18c-12.95,3.39-24.42,14.02-33.06,23.81-39.83,45.15-61.03,113.82-111.8,152.33l-38.55,25.63c60.46.56,99.74-27.16,131.46-75.79,17.27-26.48,64.15-123.11,91.12-128.99,5.06-1.1,15.48-2.41,19.53,1.18-41.19,52.69-62.81,118.76-110.05,166.91,28.01-7.76,52.95-21.36,71.34-44.21,20-24.85,27.66-59.22,55.23-76.83,5.04,2.18-.56,9.25-2.44,12.24-6.89,10.92-19.25,23.4-21.36,37.32-1.8,11.9-.29,33.2,15.88,30.66,2.76-.43,27.3-6.05,42.79-39.87,5.78,12.57,9.15,17.68,20.2,18.58,31.83,2.58,62-52.63,73.35-77.24,1.86-4.03,4.57-16.76,6.02-17.85.75-.56,17.42-5.85,17.8-2.36-22.32,15.88-43.74,77.29,1.21,67.22,26.02-5.83,41.02-47.79,55.87-68.84,2.96-4.2,19.6-25.8,21.8-25.87l15.91,35.18c.11.23.17.49.18.74.28,8.81-4.06,18.51-13.05,19.41-2.78.28-9.64-1.54-6.08-8.18,6.67-12.46,5.03-15.87,4.96-19.56-.02-1.09-.92-1.91-2-1.77-22.12,2.92-42.12,40.89-13.9,47,21.57,4.67,57.81-26.11,63.52-47.16q4.63,10.7,7.94,14.05c9.21,9.31,30.91,2.98,41.04-3.58,4.36-2.82,26.29-23.86,28.03-27,9.52-17.25-3.79-3.17-17.08,1.26-4.75,1.58-14.36,1.7-18.12-2.33-1.12-1.2-1.3-3.02-.5-4.46l33.47-60.37c17.87-1.39,35.83-5.02,52.19-12.63,13.07-6.22,26.62-15.52,32.91-28.91-17.81,12.51-48,18.18-73.17,20.05ZM445.89,130.88c6.27-9.21,30.58-23.16,41.37-26.08,2.96-.8,5.62,2.14,4.48,4.99-1.23,3.09-4.16,5.3-6.86,7.81-10.05,9.39-23.98,13.01-37.29,15.78-1.43.3-2.52-1.3-1.7-2.5Z"></path></svg> 