<?xml version="1.0" encoding="UTF-8"?> <svg xmlns="http://www.w3.org/2000/svg" id="_Walsh" data-name="&amp;amp;Walsh" viewBox="0 0 1000 400"><defs><style> .cls-1 { fill: #2a1a1d; } </style></defs><path class="cls-1" d="M331.92,119.91l17.08,118.72,33.32-90.29c4.36.46,9.64-.52,13.87,0,.45.06.91-.03,1.2.43l33.13,89.85,16.88-118.72h22.97l-23.64,156.06-24.95-.34-33.12-87.82-33.12,88.25-23.39-.03-22.97-156.12h22.77Z"></path><path class="cls-1" d="M591.91,256.11v20.94c-1.7.92-4.68,1.28-6.71,1.42-9.66.66-18.42-.82-23.95-9.38-.46-.71-2.08-4.43-2.47-4.43-13.64,16.38-42.79,18.98-61.18,9.95-14.78-7.26-21.01-19.15-18.6-35.66,3.83-26.17,31.67-27.48,52.02-33.36,7.29-2.1,20.16-4.96,21.69-13.69,2.7-15.45-18.31-18.6-29.25-17.05-13.03,1.84-22.31,10-24.7,23.07l-20.11-3.58c3.44-32.73,39.52-45.94,68.22-37.72,16.42,4.71,26.45,17.09,27.55,34.24,1.21,18.79-1.61,39.6-.01,58.15.9,10.43,9.95,8.44,17.5,7.1ZM554.1,239.24v-25.41c-.63-.03-.5.79-1,1.23-7.17,6.23-28.15,9.77-37.83,13.4-9.14,3.42-17.33,8.81-13.11,20.03,6.3,16.75,49.46,11.61,51.94-9.25Z"></path><path class="cls-1" d="M796.41,169.1c7.08-7.05,16.41-11.5,26.33-12.9,29.87-4.2,53.69,10.74,57.01,41.57.92,26.04.17,52.19.41,78.26h-22.77v-76.23c0-2.9-2.36-9.77-3.86-12.41-8.44-14.85-34.91-14.85-46.97-4.67-4.59,3.87-10.16,13.46-10.16,19.52v75.01h-22.77V120.52l.61-.61h21.55l.61.61v48.58Z"></path><path class="cls-1" d="M247.96,273.59l-6.1,3.65c2.13-.42,4.44-1.71,6.37-2.77,11.47-6.3,21.31-16.72,26.5-28.79,1.12-2.6,2.99-7.41,3.31-10.11.05-.42.27-1.53-.4-1.42l-2.03,7.53-2.44,5.07c.86-3.14,2.38-6.01,3.22-9.18,5.95-22.63-5.45-42.67-24.56-54.25-.82-.5-4-2.71-4.69-2.26-11.32,17.29-20.13,38.33-34.34,53.5-10.57,11.29-29.25,17.98-42.28,6.49-6.65-5.87-10-19.81-3.47-26.61,3.23-3.37,11.36-3.47,12.52,1.71,1.41,6.33-4.17,8.8-5.81,13.94-2.59,8.15,2.98,14.76,11.47,11.87,7.34-2.49,14.53-17.92,17.95-24.74,11.24-22.4,20.65-53.48,47.94-60.61,13.76-3.59,32.93-2.1,40.66,11.55,3.65,6.44,3.8,17.11-1.55,22.68-3.61,3.77-11.5,5.29-13.53-.69-2.19-6.45,3.09-10.58,4.71-16.27,1.77-6.23.64-12.14-5.93-14.62-9.96-3.76-17.36,5.13-22.32,12.39-.71,1.04-4.44,6.47-3.95,7.17,15.84,7.52,28.88,22.76,31.23,40.54,3.26,24.66-13.8,49.06-35.74,58.89-42.84,19.19-128.26,2.67-124.82-56.92,1.92-33.24,31.91-52.55,62.83-54.25,2.88-.16,17.71.52,18.8-.52.93-.89,1.08-2.76-.07-3.59-1.85-1.33-8.87.66-11.42.84-18.42,1.33-52.39-7.63-46.25-32.43,4.28-17.31,27.82-20.36,41.98-14.51,15.56,6.43,32.51,31.39,49.01,29.89,7.44-.68,10.05-8.38,10.37-14.84.27-5.5-2.74-15.8,5.25-17.52,7.77-1.67,11.5,6.39,10.95,12.98-1.32,15.77-18.37,24.6-32.88,21.6-17.37-3.59-30.25-26.88-45.78-28.62-25.42-2.85-25.96,38.46.05,40.61,8.42.7,17.95-3.89,24.7-2.74,5.36.91,7.41,8.12,2.54,11.29-3.91,2.55-10.27.56-14.62.38-24.31-.99-40.28,10-46.21,33.91-12.41,49.97,27.28,87.64,76.57,77.79,7.81-1.56,15.11-4.66,22.28-8.01ZM249.99,125.2c1.88-2.74,2.63-7.21-.99-8.56-3.39,1.56-1.28,6.76.99,8.56ZM154.69,123.82c.45-.83.86-1.69,1.38-2.48-.52-.75-1.38-.73-2.2-.59-4.67.79-7.77,8.04-7.17,12.4.1.8,1.97,2.04,2.88,1.4l-.41-.81h1.42c1.14-2.98,2.12-6.58,3.5-9.44.15-.32.55-.38.61-.48ZM237.8,147.15c4.45-.49,7.71-4.45,8.94-8.53-2.08.65-2.71,2.82-4.05,4.28-1.51,1.64-3.24,2.81-4.89,4.26ZM202.83,159.76c-2.71-.07-5.5.34-8.12,1.02-.46.12-1.32-.03-1.22.6,2.45-.53,5.01-.54,7.47-.86.44-.06,1.9-.16,1.87-.76ZM244.3,163.42c-1.96-1.4-9.68,4.77-11.24,6.24-11.7,10.94-18.47,30.83-25.81,45.13-5.43,10.59-12.01,23.95-23.44,28.62-.61.25-1.1-.24-.89.91,4.08.02,9.11-2.22,12.05-5.02,10.39-9.87,20.47-31.36,27.72-44.04,1.82-3.18,1.8-4.66,4.43-7.18.37-.35,1.01-2.47,1.3-2.94,4.05-6.68,9.14-12.28,13.79-18.34.8-1.04,1.1-2.44,2.09-3.4ZM284.82,164.37c-.25-.27-1.59-1.19-1.89-.95,1.17,4.58,1.16,9.07-.5,13.52-1.01,2.72-3.32,4.66-2.77,7.75.46,1.85,4.01-1.2,4.51-1.94.28-.42,2.52-5.64,2.67-6.2.69-2.55-.12-10.18-2.03-12.19ZM197.96,168.29c1.93.25,8.14.23,7.31-3.03-.51-2.01-3.09,2.37-3.76,2.32l-3.55.71ZM151.2,178.46c-1.13-.73-8.85,4.84-10.17,5.89-5.64,4.47-11.07,10.98-13.43,17.88-.71,2.08-2.65,10.37-2.35,12.13.15.9,1.34,1.38.82,2.65l.74.08-.81.8h1.22s-.38,1.57-.38,1.57l2.4.87c.63-1.12-.1-5.37.15-5.92.21-.46.86-.47,1.2-1.1.94-1.76.22-4.04,1.9-5.38l-.81-.6c1.73-.09,1.01-1.68,1.42-2.86,2.02-5.86,6.69-13.14,10.61-17.85,1.87-2.25,5.31-4.47,6.92-6.54.44-.57.35-1,.57-1.62ZM171.88,217.01c-1.11-6.71-7.31,1.32-5.45,4.15,1.48,2.25,4.36-4.03,5.45-4.15Z"></path><path class="cls-1" d="M753.71,191.04l-20.28,4.45c-3.11-11.93-14.8-20.25-26.71-21.87-9.53-1.29-24.88,1.94-28,12.56-3.48,11.8,7.12,14.73,16.05,16.88,24.56,5.89,65.14,5.86,63.85,41.08-1.18,32.24-39.36,38.42-64.75,34.63-21.84-3.26-42.1-18.98-45-41.73,5.9-.56,12.69-2.97,18.5-3.28.48-.03,1.14-.23,1.44.23,2.37,14.89,15.31,23.98,29.55,26.07,13.13,1.93,39.43.63,37.48-18.38-.86-8.34-10.61-11.18-17.47-13.02-19.87-5.32-57.55-5.57-62.1-31.41-2.69-15.3,3.81-28.32,17-36.04,27.49-16.08,72.57-2.96,80.46,29.83Z"></path><rect class="cls-1" x="609.8" y="119.91" width="22.36" height="156.12"></rect></svg> 