<?xml version="1.0" encoding="UTF-8"?> <svg xmlns="http://www.w3.org/2000/svg" id="Wedge" viewBox="0 0 1000 400"><path d="M629.98,316.96c-8.5-1.45-17.56-2.15-25.19-6.54-21.18-12.17-1.59-37.82,14.91-42.96.31-1.41-.19-.96-.78-1.34-2.18-1.4-5.24-2.37-7.38-4.08-8.53-6.8-8.02-19.49-1.76-27.71,4.54-5.97,11.27-8.28,17.17-12.43-21.34-6.45-30.04-26.88-22.98-47.68,9.66-28.46,50.88-32.36,74.07-19.6,2.32-1.32,3.81-3.32,6.32-4.56.92-.46,5.11-2.09,5.77-2.09h14.81v9.05h-22.97c11,10.17,14.64,25.6,10.71,39.96-7.18,26.26-38.65,30.63-61.7,25.88-4.56,5.82-5.57,12.5,2.49,15.46,22.23,8.16,78.26,3.08,68.66,42.32-5.92,24.2-36.83,34.85-58.86,36.3h-13.3ZM646.17,154.77c-5.3.58-9.92,5.21-11.82,9.95-4.62,11.56-5.17,50.24,11.7,52.61,13.37,1.87,16.94-9.93,17.77-20.77.91-11.92.89-43.81-17.66-41.79ZM623.13,268.14c-5.3,8.6-5.84,20.98,4.3,26.32,10.31,5.42,45.64,5.47,55.94.07,7.44-3.91,7.01-11.9-1.27-14.21l-58.97-12.18Z"></path><path d="M802.27,191.44v8.45h-64.69c.94,14.12,5.64,29.76,18.56,37.3,13.38,7.81,29.93,5.75,43.52-.39l1.38.87c-10.13,36.65-55.04,41.92-78.55,13.81-30.66-36.67-8.05-114.24,47.14-102.58,16.02,3.38,26.46,16.41,30.53,31.68l2.11,10.87ZM757.84,193.25c.2,0,14.95.23,14.86-9.35-.08-7.96-3.98-23.07-11.32-27.37-12.41-7.27-19.68,10.69-21.8,19.7-.84,3.59-2.75,13.5-1.92,16.65.39,1.49,13.93.37,20.18.37Z"></path><path d="M270.27,112.99l-.28,5.46c-.48.72-6.49,2.15-8,2.88-12.37,5.99-8.74,22.55-6.65,33.42,3.48,18.13,10.45,35.44,13.72,53.6l32.1-95.29,3.29-.1,33.83,96c3.58-16.46,7.9-32.88,10.9-49.48,2.7-14.92,9.27-37.76-12.35-40.5l-.06-5.98h49.57l-.07,5.97c-9.21,1.8-15.15,8.37-18.53,16.8l-38.28,133.47-3.18-.02-35.15-96.48-33.05,95.55c-3.47,2.98-3.96-.11-4.89-2.76-14.94-42.45-24.23-88.75-38.67-131.58-3.11-7.46-8.39-13.57-16.71-15l-.08-5.96h72.55Z"></path><path d="M548.36,131.4c-1.4-11.77-10.65-12.54-20.56-12.97l.28-5.46,50.95-11.93,1.27.88c.28,5.08-.97,10.57-1.14,15.57-1.39,41.76,1.08,84.3.03,126.14.66,8.66,3.31,13.28,12.68,13.59v6.03s-44.12,5.43-44.12,5.43c-.42-6.17.29-12.28.63-18.37.05-.97.44-4.14-.63-4.55-2.2,11.18-10.63,22.32-22.68,23.52-41.72,4.16-46.68-52.74-38.08-81.46,8.22-27.43,31.6-47.43,61.36-37.42-.52-6.02.7-13.12,0-19.01ZM534.34,155.37c-18.83,1.03-21.78,38.89-21.04,52.66.95,17.44,6.08,36.82,27.49,35.3,1.89-.13,7.19-.67,7.57-2.7v-76.06c-1.26-5.62-8.5-9.5-14.03-9.2Z"></path><path d="M469.77,199.89h-64.08c.23,31.76,22.03,48.72,53.2,40.13,1.8-.5,8.83-3.86,9.68-2.71-8.09,33.18-47.96,41.98-72.83,19.9-37.63-33.41-18.75-114.75,37.39-109.14,25.32,2.53,38.04,28.74,36.65,51.82ZM405.7,193.86c8.24-1.24,17.27-.37,25.68-1.22,5.88-.59,8.7-1.69,8.82-8.13.2-10.91-7.53-37.9-22.98-27.12-9.71,6.77-11.94,25.57-11.52,36.47Z"></path></svg> 