<?xml version="1.0" encoding="UTF-8"?> <svg xmlns="http://www.w3.org/2000/svg" id="Channel_4" data-name="Channel 4" viewBox="0 0 1000 400"><defs><style> .cls-1 { fill: #2a1a1d; } </style></defs><rect class="cls-1" x="575.8" y="225.48" width="48.46" height="31.48"></rect><polygon class="cls-1" points="559.45 53.45 529.41 90.43 529.41 36.05 532.72 31.81 559.45 53.45"></polygon><polygon class="cls-1" points="560.88 321.8 529.41 321.8 529.41 114.14 560.88 75.3 560.88 321.8"></polygon><polygon class="cls-1" points="514.7 210.77 483.23 210.77 483.23 89.91 514.7 51.07 514.7 210.77"></polygon><rect class="cls-1" x="375.75" y="225.48" width="138.96" height="31.48"></rect><polygon class="cls-1" points="468.52 108.45 468.52 158.26 425.97 210.77 385.48 210.77 468.52 108.45"></polygon><rect class="cls-1" x="483.23" y="271.67" width="31.48" height="96.32"></rect><polygon class="cls-1" points="599.82 336.5 599.82 368.19 529.72 368.19 529.41 367.88 529.41 336.81 529.72 336.5 599.82 336.5"></polygon><rect class="cls-1" x="437.04" y="336.5" width="31.27" height="31.48"></rect></svg> 