<?xml version="1.0" encoding="UTF-8"?> <svg xmlns="http://www.w3.org/2000/svg" id="ABInbev" viewBox="0 0 1000 400"><defs><style> .cls-1 { fill: #2a1a1d; } </style></defs><path class="cls-1" d="M100.88,108.15l7.52,1.25c.53.51-1.23,9.09-1.56,10.62-10.13,47.86-58.43,80.38-106.84,72.48v-4.37c1.81-6.13,2.88-12.38,5-18.44,10.12-28.89,34.88-51.1,64.54-58.73l15.04-2.81h16.29Z"></path><path class="cls-1" d="M208.02,275.61l62.63-154.05c.95-.64,20.57-.62,22.93-.32.69.09,1.39-.05,1.85.66l29.82,73.68,40.04-9.63v-64.67c16.15.48,32.44-.63,48.58-.03,12.27.46,24.09,1.23,34.69,7.89,22.37,14.04,24.4,48.37,3.2,64.3,22.53,11.2,30.51,37.54,18.48,59.68-6.43,11.83-23.36,22.48-36.98,22.48h-67.98v-66.23l-31.33,6.25,23.81,59.98h-28.82l-19.12-51.25c-28.74,11.48-55.13,28.83-76.43,51.25h-25.38ZM418.86,145.64c-8.67-.8-18.46.59-27.26,0v38.74c12.24-.56,24.41.2,36.62,1.21,15.13-5.1,15.84-30.17,2.02-36.94-2.63-1.29-8.49-2.75-11.39-3.01ZM283.2,153.14l-34.15,86.84c15.7-14.28,33.91-25.38,52.9-34.75l-18.76-52.08ZM391.6,251.24h37.91c8.59,0,18.82-9.88,19.67-18.5,2.5-25.49-40.65-26.6-57.58-25.86v44.36Z"></path><path class="cls-1" d="M659.77,121.27c16.15.48,32.44-.63,48.58-.03,14.01.52,27.58,1.49,38.81,10.66,15.5,12.66,19.31,38.82,6.58,54.65-1.9,2.36-4.4,3.94-6.48,5.9-.53.5-.57.43-.4,1.29,12.09,5.06,21.78,17.2,23.1,30.39,3.11,31.01-17.94,48.9-47.2,51.5l-63-.03V121.27ZM686.09,184.38h29.14c1.55,0,6.93-1.38,8.63-2.02,15.01-5.62,14.82-29.74-.45-34.88-1.55-.52-7.45-1.84-8.8-1.84h-28.51v38.74ZM686.09,251.24h37.91c9.51,0,19.25-10.31,19.76-19.65.61-11.02-8.1-23.46-19.76-23.46h-37.91v43.11Z"></path><path class="cls-1" d="M159.99,137.92c5.64,5.91,9.9,10.96,13.89,18.33,29.25,53.97-.92,120.32-60.07,134.4-40.55-52.41-20.92-132.18,39.49-159.28,1.49-.14,5.48,5.3,6.68,6.56Z"></path><path class="cls-1" d="M890.98,229.99h-85.21c2.3,24.06,35.07,34.15,52.03,17.83.93-.89,4.3-5.96,4.68-5.96h25.38c-1.37,6.3-6.54,13.89-10.96,18.75-22.23,24.51-62.5,22.69-83.64-2.21-25.31-29.82-13.28-79.32,24.44-91.81,41.12-13.61,80.55,21.43,73.28,63.4ZM865.91,212.5c-2.65-34.95-57.44-35.09-60.15,0h60.15Z"></path><path class="cls-1" d="M640.35,275.61h-25.69v-63.42c0-19.59-17.24-31.33-35.32-22.73-6.25,2.97-12.92,12.69-12.92,19.61v66.55h-26.32v-109.35h24.44v15c10.19-14.5,26.04-19.68,43.36-16.69,20.82,3.6,31.06,20.09,32.45,40.12v70.91Z"></path><polygon class="cls-1" points="917.92 166.26 945.18 243.74 973.37 166.26 1000 166.26 956.48 275.65 933.04 275.52 889.72 166.26 917.92 166.26"></polygon><path class="cls-1" d="M518.17,275.61h-26.94V121.27h26c.07,0,.94.87.94.94v153.4Z"></path><path class="cls-1" d="M78.32,291.85C39.91,286.71,7.9,255.5,1.26,217.5c9.53,1.92,19,4.65,27.79,8.83,25.18,11.99,47.76,36.6,49.27,65.52Z"></path></svg> 