<?xml version="1.0" encoding="UTF-8"?> <svg xmlns="http://www.w3.org/2000/svg" id="Allwyn" viewBox="0 0 1000 400"><defs><style> .cls-1 { fill: #2a1a1d; } </style></defs><path class="cls-1" d="M601.2,312.98l22.74-59.25-19.83-56.06-22.05,60.81-37.08.02-21.45-60.83-22.04,60.82h-37.08s-39.24-117.31-39.24-117.31h39.78l20.1,63.19,22.49-63.14,34.47-.03,20.99,63.17,20.73-63.14h39.26l20.73,62.85,22.58-62.89h78.83v12.81c4.61-5.51,10-10.17,16.83-12.74,11.48-4.31,26.33-2.82,36.77,3.59,12.25,7.53,17.49,20.98,18.38,34.92v78.76s-40.5,0-40.5,0v-67.71c-.06-11.75-8.1-20.54-20.34-16.81-6.22,1.9-10.85,9.63-10.85,15.95v68.57h-39.92v-112.98l-63.82,167.43h-40.51Z"></path><path class="cls-1" d="M267.82,153.99v-12.81h39.63v117.34h-39.63v-13.39c-.54-.12-.57.18-.83.48-7.98,9.31-14.58,14.45-27.57,15.25-58.9,3.64-75.48-82.41-32.13-112.76,16.65-11.66,42.54-13.94,57.19,2.1.9.99,1.69,2.34,2.52,3.3.26.3.28.61.83.48ZM227.7,182.34c-14.27,14.26-6.29,38.83,13.53,42.03,19.59,3.17,34.94-16.88,26.54-34.96-7.21-15.51-27.9-19.23-40.07-7.07Z"></path><rect class="cls-1" x="323.19" y="87.02" width="39.05" height="171.5"></rect><rect class="cls-1" x="377.97" y="87.02" width="38.76" height="171.5"></rect></svg> 