<?xml version="1.0" encoding="UTF-8"?> <svg xmlns="http://www.w3.org/2000/svg" id="Arsenal" viewBox="0 0 1000 400"><defs><style> .cls-1 { fill: #2a1a1d; } </style></defs><path class="cls-1" d="M640.17,47.38c10.34,45.02,19.08,91,12.9,137.37-10.9,81.88-63.02,149.67-134.47,188.8-3.49,1.91-14.53,8.08-17.6,8.84-.89.22-1.13.22-2.02,0-3.16-.78-14.47-7.11-18.04-9.07-71.15-39.13-123.2-106.94-134.03-188.57-6.16-46.43,2.59-92.29,12.91-137.36,87.92-39.9,192.46-39.9,280.35,0ZM534.83,172.33h109.56c2.31-29.21-1.22-58.55-6.41-87.26-1.48-8.19-3.31-21.06-5.94-28.55-.41-1.17-.51-1.67-1.59-2.47-1.21-.89-19.68-8.18-20.55-7.51,9.59,40.25,17.32,81.43,15.56,123.08-10.19,1.24-6.06-3.44-6.06-9.78.01-15.07-1.58-31.64-3.51-46.6-3.01-23.37-8.06-46.55-13.15-69.5-66.08-21.67-139.39-21.64-205.46,0-10.76,47.85-20.43,97.11-14.52,146.41,2.87,23.89,9.8,47.23,19.53,69.12.25,1.31-3.61,2.47-4.3,2.27-1.23-.35-6.81-14.36-7.71-16.69-14.87-38.63-18.56-81.06-14.29-122.15,2.67-25.67,8.85-50.85,13.43-76.17l-20.6,8.14c-10.19,42.07-17.72,86.74-11.76,130.06,4.03,29.29,14.21,59.84,29.98,84.76,20.78-6.99,39.46-19.79,53.77-36.3,1.33,8.57,5.36,16.22,9.47,23.66-12.98,6.55-26.09,12.86-40.06,17.1-5.99,1.82-12.32,2.85-18.09,4.89,25,37.37,59.89,68.09,100.08,88.25-34.01-23.74-64.83-52.85-85.88-88.93l5.37-1.67c20.3,37.78,52.31,68.23,88.29,91.06,58.86-36.22,103.3-95.85,115.4-164.7l6,.26c-11.86,68.73-56.64,125.78-113.63,163.66.61.96,2.02-.33,2.71-.68,38.5-19.3,76.92-54.58,99.69-91.02,10.7-17.13,28.99-55.71,30.08-75.43.06-1.16.59-1.71-.94-1.62-16.68,1-33.32,3.03-50.05,3.39-2.2.38-2.13,3.17-3.43,4.68-3.48,4.06-19.91,5.61-25.56,7.44-.91-.3-3.13-10.72-3.97-12.98-4.35-11.58-12.38-20.21-21.48-28.23Z"></path><path class="cls-1" d="M492.76,165.09c40.89-4.17,73.05,31.87,62.53,72-11.66,44.5-69.53,57-99.26,21.81-28.78-34.06-7.88-89.27,36.73-93.81ZM496.28,175.71c-13.32.17-27.77,8.41-34.51,19.93l25.68,14.98c.64.13,3.89-2.63,4.99-3.23.95-.52,3.84-1.04,3.84-1.24v-30.43ZM503.72,175.71v30.43c3.32.4,5.74,2.87,8.45,4.53l26.06-15.04c-7.02-11.4-20.97-19.75-34.51-19.93ZM483.99,217.09l-26.27-14.7c-6.26,11.88-6.22,27.47,0,39.31l26.28-14.72c-1.05-1.94.31-9.37,0-9.89ZM542.93,241.31c4.85-12.35,6.09-27.37-.99-39.14l-25.92,14.93c-.7,1.19.49,3.49.54,4.94.15,4.26-2.49,2.92,2.5,6.29,4.64,3.13,17.05,10.69,21.87,12.62.68.27,1.24.53,1.99.36ZM498.83,213.72c-10.57,1.33-8.89,17.42,1.76,16.75s9.8-18.2-1.76-16.75ZM495.6,268.37v-30.1c0-.46-6.99-4.46-8.12-4.11l-25.68,14.93c7.82,10.73,20.31,18.84,33.79,19.28ZM504.39,268.37c13.58-.57,25.97-8.51,33.79-19.28l-26.19-15.12c-.64-.09-7.61,3.86-7.61,4.3v30.1Z"></path><path class="cls-1" d="M386.72,134.46c2.45-5.78,5.05-11.53,7.27-17.42,3.93-10.43,8.79-22.1,9.06-33.21l19.88-2.85,11.14,45.36c.92-.63,1.26-3.99,1.33-5.08.56-8.15.78-16.65-.66-24.67,4.39.8,9.73-1.49,13.88-.69,1.84.35,1.41,2.04,2.02,2.06.9.04,4.38-2.87,6.23-3.25,3.91-.81,6.2-1.02,5.93,3.22,6.62-5.35,16.56-6.23,24.06-2.26l-.73,11.05c-3.14-2.15-7.66-4.17-11.51-3.04-.88.26-1.61.16-1.33,1.34l13.52,7.11c-.65-19.18,27.82-27.3,35.18-8.79l-.68-9.46c3.75,1.38,9.85-.18,13.05.8,1.69.52,1.71,2.48,1.84,2.57.31.22,4.79-2.47,7.08-2.7,15.15-1.56,14.65,11.95,15.23,22.99,4.36-6.39,10.68-8.03,17.56-10.48-4.87-4.37-11.02.59-15.53,3.04-.35-2.34-1.61-12.17-.05-13.23,8.35-1.39,21.9-2.84,27.76,4.78s2.57,20.8,6.43,29.42l-5.07-50.05c4.1,1.58,11,.9,14.72,2.47,2.41,1.02,5.61,45.12,7.59,50.95-9.79-.27-19.66.36-29.46.04-1.29-.04-2.15-1.09-2.69-1.13-.75-.04-2.38,1.3-3.55,1.58-6.13,1.48-13.22.64-16.72-5.23l.34,4.74h-16.91v-26.71c.07-1.9-2.89-2.25-4.11-1.4-2.07,1.45.47,24.16.72,28.11h-16.91v-5.41c-9.26,9.34-27.17,7.82-33.48-4.07-5.51,11.74-20.85,11.74-31.45,7.45v-14.88c3.68,2.56,9.01,7.73,13.83,7.41,3.02-.2,4.08-1.94,1.27-3.91-5.74-4.04-14.93-4.6-14.43-14.32-4.17-.02-6.69,4.25-7.27,7.95-.98,6.3-.69,13.47-.17,19.79h-33.14l-1.75-10.18-11.04.78-2.09,9.4h-16.23ZM390.77,131.75h10.14l2.7-9.14c.6-.35,12.72-1.22,13.91-1.05,2.4.35,1.37,8.42,3.35,10.19h12.51l-12.51-48.05-15.22,2.07c-.3,9.99-4.81,20.48-8.29,29.92-2,5.42-4.07,10.87-6.59,16.06ZM608.54,131.75l-5.52-44.87c-.86-2.04-7.54-1.63-9.69-2.49l4.39,47.35h10.82ZM501.06,118.27l19.95-7.48c.57-17.43-23.27-20.35-29.84-6.12-7.8,16.89,7.35,33.92,24.65,26.01,2.18-1,7.86-5.37,3.01-6.25-1.58-.29-5.7,4.02-11.77,2.28-2.33-.67-7.67-6.51-6.01-8.44ZM484.1,102c1.36-5.98-2.95-6.2-7.78-6.14-7.94.1-19.79,7-13.86,15.95,2.23,3.36,21.4,8.88,13.21,14.56-4.87,3.38-10.8-.63-15.23-2.72-1.02,7.44.97,8.13,7.86,8.7,8.86.74,20.76-3.31,18.37-14.31-1.63-7.5-15.9-7.77-16.12-12.97-.27-6.15,9.82-4.18,13.56-3.07ZM436.76,131.75h11.5c-.78-6.58-1.2-21.82,4.76-26.01,2.25-1.58,6.48-1.48,6.73-1.72.21-.2.12-4.96,0-5.77-.38-2.62-5.22.4-6.32,1.15-2.05,1.4-3.4,3.35-4.85,5.3l-.97-5.79-9.51.38.73,7.78-2.08,24.69ZM525.36,131.75h11.5c-.67-7.14-2.49-16.95-1.31-23.97.95-5.7,9.11-6.51,10.06-.67.53,3.23.62,10.4.75,14.13.11,3.38.34,7.39-.71,10.52h10.82c-1.54-7.31.98-27.57-4.49-32.37-4.68-4.11-13.13-2.07-16.81,2.6l-1.78-4.63-8.7-.09.68,34.49ZM591.63,131.75c-4.32-18.99,2.51-35.12-24.04-33.17-1.7.13-3.33.31-4.96.78l-.07,6.01c6.65-3.18,16.22-5.45,16.9,4.73-7.96.1-19.53,4.29-18.99,13.88.45,8,9.62,10.64,16.27,8.09,1.32-.51,4.14-3.02,4.41-3.02,1.05.02.87,2.69,1.01,2.69h9.47ZM522.64,113.49c-5.04,2.13-11.89,3.55-16.6,6.05-.74.39-1.84.49-1.65,1.71,4.5,8.1,13.68-.96,14.53-.96,1.25,0,2.58,4.4,4.39,4.02l-.68-10.82Z"></path><path class="cls-1" d="M465.17,172.33c-11.48,9.38-20.49,20.91-23.8,35.72-7.77.41-25.31,2.71-31.88-.66-4.78-2.46-6.78-9.6-7.31-9.94-.83-.54-4.2.22-5.66-.09-3.54-.75-3.85-8.85-2.01-11.48,2.3-3.3,6.23-1.29,7.65-2.16.29-.18,2.02-4.59,3.14-5.99,1.34-1.68,6.14-5.4,8.13-5.4h51.74Z"></path><path class="cls-1" d="M543.6,217.62l-24.32,5.43.11-4.62,21.19-12.27c1.23.02,3.07,9.74,3.02,11.46Z"></path><path class="cls-1" d="M492.89,179.1v24.68c0,.47-5.16,3.32-6.25,2.92l-20.79-12.39c6.98-7.84,16.2-14.51,27.04-15.22Z"></path><path class="cls-1" d="M480.61,218.43v7.22s-21.54,11.97-21.54,11.97c-4.19-9.71-3.25-20.84-.66-30.8,1.33-1.17,19.06,10.71,22.2,11.61Z"></path><path class="cls-1" d="M507.1,179.09c10.84.71,20.06,7.38,27.04,15.22-5.96,3.3-12.15,7.95-18.23,10.83-3.27,1.55-5.5,2.25-8.5-.99-2.81-3.02.31-20.18-.3-25.06Z"></path><path class="cls-1" d="M500,216.6c6.5,0,7.48,10.57,0,10.58-7.42,0-6.93-10.57,0-10.58Z"></path><path class="cls-1" d="M417.15,116.2h-11.5l7.1-20.3,4.4,20.3ZM413.77,113.49c.3-.3-.44-7.75-2.02-8.11l-2.03,8.11h4.06Z"></path><path class="cls-1" d="M499.66,114.17c-.25-4.83-.89-13.62,5.82-14.19,4.88-.41,7.2,6.15,4.93,9.73-.92,1.45-10.31,4.92-10.75,4.46ZM502.37,110.79c2.51-1.75,6.44-1.02,6.07-5-.67-7.2-8.45-.71-6.07,5Z"></path><path class="cls-1" d="M579.46,113.49l.98,11.54c-12.91,9.1-15.5-11.01-.98-11.54ZM577.43,116.88c-6.62.42-7.63,9.9-.3,7.47l.3-7.47Z"></path></svg> 