<?xml version="1.0" encoding="UTF-8"?> <svg xmlns="http://www.w3.org/2000/svg" id="Coty" viewBox="0 0 1000 400"><defs><style> .cls-1 { fill: #2a1a1d; } </style></defs><path class="cls-1" d="M453.8,154.82c33.61,30.56,21.43,90.03-22.81,103.57-49.58,15.17-95.56-21.47-83.9-73.88,10.55-47.41,72.82-60.5,106.71-29.68ZM432.4,169.92c-18.25-14.66-48.35-8.31-56.9,14.1-11.43,29.95,10.55,60.52,43.35,52.61,29.42-7.1,35.68-48.92,13.55-66.7Z"></path><path class="cls-1" d="M258.81,179.4c-1.61-3.41-4.64-6.51-7.61-8.88-13.29-10.61-35.43-11.34-48.51,0-17.51,15.18-15.92,50.04,4.51,62.14,16.3,9.66,42.33,5.16,51.61-12.15l19.23,15.74c-15.01,23.2-46.33,30.1-71.92,22.68-37.53-10.89-53.6-53.34-36.54-87.81,13.64-27.56,44.87-37.11,73.74-30.87,14.47,3.13,26.32,11.32,34.69,23.41l-19.19,15.74Z"></path><path class="cls-1" d="M747.82,140.51c.07,5.29.13,11.19,1.21,16.38,2.81,13.42,17.37,24.93,25.61,35.51.6.77,3.09,4.94,3.73,4.78,1.75-2.54,3.58-5.04,5.55-7.41,9.32-11.22,21.13-19.85,23.78-35.11.81-4.67.94-9.41.86-14.14h28.53c1.06,17.82-4.89,32.26-15.94,45.73-10.57,12.89-28.22,25.3-29.27,42.96-.6,9.97.48,20.54.02,30.57h-28.16c-.74-11.07,1.2-23.67-.47-34.53-2.39-15.5-24.65-32.24-33.91-45.73-8.05-11.73-11.51-24.7-10.81-39.01h29.27Z"></path><polygon class="cls-1" points="644.46 140.51 646.68 164.58 605.38 164.58 604.82 165.14 604.82 259.77 575.93 259.77 575.93 164.58 534.43 164.58 536.66 140.51 644.46 140.51"></polygon></svg> 