<?xml version="1.0" encoding="UTF-8"?> <svg xmlns="http://www.w3.org/2000/svg" id="Conde_Nast" data-name="Conde Nast" viewBox="0 0 1000 400"><defs><style> .cls-1 { fill: #2a1a1d; } </style></defs><path class="cls-1" d="M353.63,247.65v-2.37h11.08v-80.71h-11.08v-2.37h46.3c6.23,0,19.43,4.98,24.86,8.37,24.19,15.1,23.46,53.84-.79,68.71-5.21,3.19-18.18,8.37-24.07,8.37h-46.3ZM381.33,245.27h15.43c2.98,0,11.19-3.99,13.78-6,18.12-14.09,17.72-60.27-3.86-71.18-1.85-.93-9.06-3.53-10.71-3.53h-14.64v80.71Z"></path><path class="cls-1" d="M184.11,160.84c37.2-3.78,64.18,40.71,39.35,70.99-31.66,38.59-91.86,6.14-77.99-40,4.84-16.09,22.03-29.31,38.64-31ZM182.48,163.96c-20.95,3.25-21.59,37.89-19.48,53.91,2.39,18.16,9.89,30.8,30.3,28.12,21.98-2.89,22.33-37.44,20.15-54.03-2.4-18.24-10.43-31.19-30.97-28Z"></path><path class="cls-1" d="M531.69,162.19v22.95c-5.32-6.91-8.83-15.52-16.22-20.57h-28.89v35.61h16.22c4.99-3.66,7.02-10.44,10.45-14.83.51-.65-.02-1.44,1.81-1v34.82c-3.09-.83-4.26-5.67-6.15-8.49-1.77-2.63-3.8-5.16-6.11-7.34h-16.22v41.94h32.05l6.57-9.25,8.86-16.86v28.49h-75.97v-2.37h11.87l-.79-80.71h-11.08v-2.37h73.6Z"></path><polygon class="cls-1" points="660.69 217.58 660.69 164.56 650.4 164.56 650.4 162.19 674.15 162.19 674.15 164.56 663.86 164.56 663.86 249.23 602.13 165.36 602.13 245.27 612.42 245.28 612.42 247.65 587.88 247.65 587.88 245.28 598.17 245.27 598.17 164.56 587.88 164.56 587.88 162.19 622.31 162.19 660.69 217.58"></polygon><polygon class="cls-1" points="283.19 162.19 318.15 214.67 321.18 217.58 321.18 164.56 310.1 164.56 310.1 162.19 334.63 162.19 334.64 164.56 324.35 164.56 324.35 249.23 261.83 165.36 261.83 245.27 272.9 245.27 272.9 247.65 248.37 247.65 248.37 245.28 258.66 245.27 258.66 164.56 248.37 164.56 248.37 162.19 283.19 162.19"></polygon><polygon class="cls-1" points="956.68 162.98 956.68 189.09 940.45 164.56 925.81 164.56 925.81 245.27 939.27 245.27 939.27 247.65 894.95 247.65 894.95 245.27 908.4 245.27 908.4 164.56 893.76 164.56 877.54 189.09 877.54 162.98 956.68 162.98"></polygon><path class="cls-1" d="M853.79,160.61v26.9c-1.84.44-1.3-.36-1.81-1-10.24-13.04-14.53-30.98-36.97-21.55-8.34,3.5-11.04,13.9-4.74,20.57,10.14,10.72,39.87,8.98,45.72,25.51,10.45,29.55-27.03,48.69-49.29,30.56l-12.26,6.06v-30.07c1.84-.44,1.3.36,1.81,1,8.91,11.32,7.96,21.74,24.47,26.14,10.77,2.87,26.39.19,27.55-13.3,1.95-22.82-39.95-17.52-48.3-37.17-8.79-20.68,13.14-39.16,33.69-32.9,2.26.69,7.33,4.48,7.88,4.52,2.11.12,9.15-5.86,12.26-5.26Z"></path><path class="cls-1" d="M120.16,162.19v27.69c-1.84.44-1.3-.36-1.81-1-7.66-9.75-10.98-23.61-25.5-25.1-21.63-2.22-28.38,14.29-29.66,32.84-1.54,22.17,1.88,53.94,31.85,49.26,14.67-2.29,16.61-15.27,24.1-24.92.51-.66-.02-1.43,1.81-1v28.49c-3.45.28-8.5-5.6-11.49-5.5-1.47.05-3.75,2.52-5.39,3.27-27.68,12.65-60.75-10.88-60.75-40.89,0-31.53,37.47-55.93,64.69-37.75l12.15-5.38Z"></path><path class="cls-1" d="M778.61,247.65h-39.57v-3.16c.31-.33,7.5.21,9.12,0,.92-.12,1.59.33,1.14-1.15-2.63-8.85-9.91-19.1-13.02-28.14-.61-.81-1.47-.72-2.34-.83-2.77-.33-24.67-.23-25.77.43l-12.57,28.59c-.34,1.51,0,.96,1.09,1.09,2.37.28,10.91-1.31,7.14,3.16h-21.76v-3.16s10.37-.49,10.37-.49l36.72-84.95,38.46,84.18c2.75,3.51,11.52-1.78,11,4.43ZM735.08,212.04c-4.35-9.37-7.6-20.01-13.44-28.48l-11.88,28.48h25.32Z"></path><path class="cls-1" d="M517.45,116.3c-1.59,6-2.61,10.55-.79,16.61l-26.91,5.53,24.89-21.4,2.81-.75Z"></path></svg> 