<?xml version="1.0" encoding="UTF-8"?> <svg xmlns="http://www.w3.org/2000/svg" id="DAZN" viewBox="0 0 1000 400"><defs><style> .cls-1 { fill: #2a1a1d; } </style></defs><path class="cls-1" d="M675.92,25v154.34l-20.67,20.66,20.67,20.66v154.34h-351.84v-154.34l20.67-20.66-20.67-20.66V25h351.84ZM653.93,46.96h-307.86v122.05c5.11,6.99,27.23,23.11,27.23,31s-22.13,24.01-27.23,31v122.05h307.86v-122.05c-5.11-6.99-27.23-23.11-27.23-31s22.13-24.01,27.23-31V46.96Z"></path><path class="cls-1" d="M536.22,313.65c-1.02,3.31-16.16,1.97-19.49,1.37l-1.03-1.55.38-97.41c1.3-1.86,18.62-2.63,20.85,1.3l30.32,55.61v-56.18c2.03-2.95,17.81-2.55,19.49-1.37l1.03,1.55-.38,97.41c-1.55,2.22-19.05,2.35-21.45-1.99l-29.72-54.92v56.18Z"></path><path class="cls-1" d="M415.53,84.67c4.27-1.25,28.9-.76,34.71-.31,19.94,1.57,33.65,12.59,35.5,33,1.72,18.92,2.77,52-15.88,62.88-10.13,5.91-40.31,6.47-52.07,4.96-2.2-.28-3.92-.48-5.12-2.64v-95.58c.66-1.11,1.6-1.95,2.85-2.32ZM435.32,165.77c17.45.08,25.35.5,27.14-18.75,2.03-21.78,2.8-48.98-27.14-43.24v61.99Z"></path><path class="cls-1" d="M509.7,185.15c-.95-.29-2.02-2.07-1.99-3.23l32.94-96.32c2.72-1.95,23.23-2.76,25.91,1.45l30.52,94.83c-.9,5.7-15.71,3-20.78,2.64l-7.23-20.12-33.28.02-7.32,20.72h-18.76ZM563.38,146.4l-10.36-37.45c-2.18.36-2.32,2.52-2.94,4.15-3.77,9.88-6.48,22.84-8.69,33.3h21.99Z"></path><path class="cls-1" d="M441.79,294.93h42.04c3.16,3.72,3.61,18.89-1.55,20.4l-64.48.32c-8.82-.46-5.72-13.2-5.06-19.38l41.98-60.76h-41.39c-.63-6.74-3.61-15.21,2.12-20.49l63.27-.24c8.82.46,5.72,13.2,5.06,19.38l-41.98,60.76Z"></path></svg> 