<?xml version="1.0" encoding="UTF-8"?> <svg xmlns="http://www.w3.org/2000/svg" id="Flutter" viewBox="0 0 1000 400"><defs><style> .cls-1 { fill: #2a1a1d; } </style></defs><polygon class="cls-1" points="288.38 90.23 146.24 233.46 112.47 199.7 221.77 90.23 288.38 90.23"></polygon><path class="cls-1" d="M817.14,221.79h-72.06c.57,31.67,40.75,42.58,56.72,15.03l13.67,5.09c-16.43,34.9-68.64,33.89-82.76-3.15-13.54-35.53,11.47-76.52,51.94-67.86,14.94,3.2,32.49,20.42,32.49,36.22v14.66ZM800.38,209.22c-2-33.86-50.19-32.4-54.47,0h54.47Z"></path><polygon class="cls-1" points="452.62 136.32 452.62 151.4 393.97 151.4 393.97 194.13 446.34 194.13 447.6 195.39 447.6 209.22 393.97 209.22 393.97 264.52 379.3 264.52 378.05 263.27 378.05 137.57 379.3 136.32 452.62 136.32"></polygon><path class="cls-1" d="M523.01,173.19v61.59c0,3.93,3.67,10.71,6.77,13.34,14.73,12.49,40.16-1.53,40.16-19.21v-55.72h15.92v91.34h-15.08v-12.57c-14.14,20.28-50.07,21.8-60.48-2.78-.79-1.87-3.2-8.67-3.2-10.2v-65.78h15.92Z"></path><path class="cls-1" d="M230.57,251.12c16.44,16.44,43.18,38.66,56.57,56.14.65.84,1.62,1.06,1.25,2.52h-66.62c-8.84-8.33-16.95-17.45-25.56-25.98l34.36-32.68Z"></path><path class="cls-1" d="M196.21,216.76c8.33-8.25,16.16-17.09,24.72-25.14h67.46l-57.82,57.82c-.09-.11-1.63-.29-2.53-1.2-10.55-10.55-20.86-21.37-31.82-31.48Z"></path><path class="cls-1" d="M633.62,147.21v25.98h22.62v14.25h-21.79v56.56c0,5.1,7.47,8.93,12.11,8.82,3.68-.09,6.79-2.72,10.51-2.54v13.83c-11.6,6.68-31.13,3.03-36.68-10.24-.76-1.82-2.7-8.29-2.7-9.87v-56.56h-14.66l-1.26-1.26v-12.99h15.92v-24.72l1.26-1.26h14.66Z"></path><path class="cls-1" d="M698.15,147.21v25.98h22.62v12.99l-1.26,1.26h-21.37v53.21c0,.67,1.67,6.18,2.16,7.06,3.98,7.2,14.22,4.7,20.46,2.58v15.08c-12.23,3.94-29.72,2.22-35.81-10.7-.47-.99-2.74-7.62-2.74-8.15v-59.08h-15.92v-14.25h15.92v-25.98h15.92Z"></path><path class="cls-1" d="M230.57,249.44c.2.25-.2,1.48,0,1.68l-34.36,32.68c-11.22-11.12-23.27-21.83-33.46-33.82,10.77-11.46,22.3-22.17,33.46-33.21,10.97,10.11,21.27,20.93,31.82,31.48.91.9,2.45,1.09,2.53,1.2Z"></path><path class="cls-1" d="M887.53,189.11c-12.08-5.17-24.36-3.47-32.21,7.59-1.09,1.54-4.66,8.95-4.66,10.42v56.14l-1.26,1.26h-14.66v-91.34h15.08v12.57l6.69-7.97c8.33-6.97,21.12-10.88,31.01-5.02v16.34Z"></path><rect class="cls-1" x="470.22" y="136.32" width="15.92" height="128.21"></rect></svg> 