<?xml version="1.0" encoding="UTF-8"?> <svg xmlns="http://www.w3.org/2000/svg" id="Future_Beauty_Labs" data-name="Future Beauty Labs" viewBox="0 0 1000 400"><defs><style> .cls-1 { fill: #2a1a1d; } </style></defs><g><path class="cls-1" d="M604.77,43.51c4.12.49,10.09,3.53,13.29,6.15,15.44,12.68,12.88,36.02-4.72,45.16l17.11,29.63h-19.77l-15.05-26.39h-9.44v26.39h-18.3V43.51h36.89ZM586.18,81.63h16.23c3.35,0,6.81-5.59,7.22-8.66.67-4.94-2.91-12.46-8.4-12.46h-15.05v21.11Z"></path><path class="cls-1" d="M510.03,43.51v55.42c0,1.61,2.19,5.32,3.52,6.47,4.31,3.69,15.69,3.68,19.5-.6.36-.41,2.35-3.88,2.35-4.11v-57.18h18.89v59.53c0,1.1-2.36,7.35-3.05,8.7-12.29,23.74-60.11,17.28-60.11-11.63v-56.6h18.89Z"></path><path class="cls-1" d="M371.32,43.51v55.42c0,.59,1.41,3.86,1.87,4.6,3.95,6.28,18.99,6.27,22.45-.37.28-.53,1.65-4.54,1.65-4.81v-54.84h18.3v59.53c0,1.45-2.05,6.76-2.84,8.32-9.85,19.26-45.05,19.96-56.07,1.53-.92-1.54-3.66-7.86-3.66-9.27v-60.12h18.3Z"></path><polygon class="cls-1" points="690.07 43.51 690.07 61.1 658.19 61.1 658.19 74.59 687.12 74.59 687.12 92.19 658.19 92.19 658.19 106.85 690.66 106.85 690.66 124.44 639.31 124.44 639.31 43.51 690.07 43.51"></polygon><polygon class="cls-1" points="342.4 43.51 342.4 61.1 311.7 61.1 311.7 76.94 341.81 76.94 341.81 94.53 311.7 94.53 311.7 124.44 292.81 124.44 292.81 43.51 342.4 43.51"></polygon><polygon class="cls-1" points="484.06 43.51 484.06 61.1 462.81 61.1 462.81 124.44 443.92 124.44 443.92 61.1 423.26 61.1 423.26 43.51 484.06 43.51"></polygon></g><g><path class="cls-1" d="M292.81,238.89v-80.94h36.89c1.31,0,6.91,2.11,8.37,2.83,13.82,6.87,16.88,25.53,5.51,36.17,14.24,9.4,12.68,30.24-1.98,38.51-1.82,1.03-7.73,3.42-9.54,3.42h-39.25ZM311.7,189.62h15.05c.65,0,3.18-1.94,3.75-2.73,1.48-2.09,1.78-5.32.82-7.68-.6-1.47-4.3-4.26-5.75-4.26h-13.87v14.66ZM311.7,221.29h18c.15,0,2.32-1.25,2.61-1.51,3.07-2.73,3.3-8.41.37-11.42-.68-.69-3.44-2.32-4.16-2.32h-16.82v15.25Z"></path><path class="cls-1" d="M419.13,238.89l26.85-80.36c.43-.65,1.1-.53,1.75-.61,6.84-.84,15.36.72,22.4,0l27.51,80.97h-19.77l-4.36-11.97-30.7-.29-3.6,12.26h-20.07ZM467.53,208.97l-8.86-29.32-10.03,29.32h18.89Z"></path><path class="cls-1" d="M520.66,157.95v56.6c0,.24,1.2,2.74,1.5,3.2,4.23,6.46,18.13,6.48,22.38,0,.3-.46,1.5-2.96,1.5-3.2v-56.6h18.89v57.77c0,32.83-63.16,32.82-63.16,0v-57.77h18.89Z"></path><polygon class="cls-1" points="413.23 157.95 413.23 175.54 381.35 175.54 381.35 189.03 410.28 189.03 410.28 206.63 381.35 206.63 381.35 221.29 413.82 221.29 413.82 238.89 362.47 238.89 362.47 157.95 413.23 157.95"></polygon><polygon class="cls-1" points="654.95 157.95 670.89 189.04 685.94 157.95 707.19 157.95 680.03 207.51 680.03 238.89 661.74 238.89 661.74 208.09 634.58 157.95 654.95 157.95"></polygon><polygon class="cls-1" points="632.81 157.95 632.81 175.54 612.15 175.54 612.15 238.89 593.26 238.89 593.26 175.54 572.6 175.54 572.6 157.95 632.81 157.95"></polygon></g><g><path class="cls-1" d="M530.69,271.92c1.91.23,6.91,1.84,8.85,2.65,6.31,2.63,13.39,9.15,15.31,15.74l-15.54,8.64c-1.6-3.12-3.53-5.88-6.81-7.4-11.79-5.48-22.89,4.99-10.29,11.39,14.27,7.25,36.19,6.39,35.65,29.08-.77,31.94-54.99,31.89-63.19,4.15l16.24-9.13c3.41,9.04,12.23,12.63,21.58,10.89,4.78-.89,8.7-5.33,5.3-10.01-2.86-3.93-20.22-7.45-25.8-10.14-23.4-11.27-15.39-43.09,9.26-45.86,2.23-.25,7.23-.26,9.44,0Z"></path><path class="cls-1" d="M585,342.89v5.28c-3.29,9.53-16.7,11.56-21.1,1.9-6.54-14.37,16.27-23.1,21.1-7.18Z"></path><path class="cls-1" d="M429.76,354.62v-80.94h37.48c8.94,0,19.47,10.84,20.36,19.65.78,7.77-1.23,13.6-6.44,19.27,13.88,9.77,12.37,31.23-2.8,38.98-1.35.69-7.64,3.03-8.75,3.03h-39.84ZM448.65,305.35h15.05c2.86,0,5.78-5.07,5.59-7.85-.22-3.22-3.53-6.81-6.77-6.81h-13.87v14.66ZM448.65,337.02h18.59c.72,0,3.63-2.8,3.98-3.67,1-2.46.75-7.13-1.08-9.19-.52-.59-3.53-2.39-4.09-2.39h-17.41v15.25Z"></path><path class="cls-1" d="M344.17,354.62l27.22-80.87,23.27-.11,28.01,80.98h-20.07l-3.9-12.35-29.96.12-4.8,12.24h-19.77ZM392.57,324.7l-9.15-29.33-9.15,29.33h18.3Z"></path><polygon class="cls-1" points="311.11 273.68 311.11 337.02 340.62 337.02 340.62 354.62 292.81 354.62 292.81 273.68 311.11 273.68"></polygon></g></svg> 