<?xml version="1.0" encoding="UTF-8"?> <svg xmlns="http://www.w3.org/2000/svg" id="Gymshark" viewBox="0 0 1000 400"><defs><style> .cls-1 { fill: #2a1a1d; } </style></defs><path class="cls-1" d="M93.08,124.6c11.27,2.9,19.7,7.96,24.16,19.12.51,1.28,2.82,7.85,2.82,8.42v24.17h-21.36v-20.8c0-.34-2.33-5.48-2.83-6.16-2.94-3.95-9.87-4.22-14.35-3.15-5.99,1.42-7.2,10.71-7.59,16.01-1.03,13.91-1.9,73.6,1.49,84.04,2.41,7.42,6.01,8.54,13.76,7.65,4.6-.53,9.53-5.23,9.53-9.58v-32.04h-10.12v-20.23h31.47v55.64c0,.57-2.31,7.14-2.82,8.42-4.46,11.16-12.88,16.22-24.16,19.12h-14.61c-16.04-3.89-23.81-13.31-26.98-29.23,2.66-28.8-3.57-64.16,0-92.18,1.96-15.42,12.07-25.75,26.98-29.23h14.61Z"></path><path class="cls-1" d="M367.36,124.6c21.03,4.49,28.05,21.53,26.98,41.59h-22.48c.55-11.62.84-22.32-14.11-20.29-9.53,1.3-9.35,14.23-7.87,21.48,3.3,16.16,28.57,29.94,37.5,45.69,13.05,23.02,8.68,56.98-21.13,62.16-4.3-.39-9.32.54-13.49,0-9.28-1.2-19.1-8.13-23.4-16.5-.77-1.49-3.58-8.9-3.58-9.91v-19.67h21.36c.04,7.75-1.95,22.96,8.49,24.66,7.18,1.16,13.92-.45,15.04-8.43,4.59-32.53-36.88-41.08-43.27-72.36-4.29-21.02,2.1-43.64,25.36-48.4h14.61Z"></path><path class="cls-1" d="M627.59,126.85c12.62,1.7,21.36,11.17,23.88,23.34,3.15,15.24,3.04,42.12-12.48,50.76l-.71,2.32c25.17,12.63,8.91,49.09,16.85,70.84h-24.73c-3.95-12.48,3.45-48.22-5.69-56.7-4.75-4.41-13.11-2.5-19.04-2.88v59.58h-22.48V126.85c13.84,1.34,30.98-1.81,44.4,0ZM605.67,148.77v42.72c4.76,3.82,16.55,1.26,20.26-3.35,4.31-5.36,3.91-18.02,3.4-24.8-1.17-15.53-6.83-17.17-21.79-16.07l-1.86,1.51Z"></path><polygon class="cls-1" points="430.31 126.85 430.31 189.8 457.29 189.8 457.29 126.85 480.9 126.85 480.9 272.42 479.21 274.1 457.29 274.1 457.29 211.15 430.31 211.15 430.31 274.1 407.83 274.1 407.83 126.85 430.31 126.85"></polygon><polygon class="cls-1" points="689.98 126.85 689.98 189.8 720.33 126.85 743.93 126.85 712.39 192.61 742.81 274.1 720.89 274.1 697.83 215.66 689.98 228.58 689.98 274.1 667.5 274.1 667.5 126.85 689.98 126.85"></polygon><path class="cls-1" d="M492.7,274.1l22.04-147.14,33.45.04,23.77,147.1h-23.61l-3.37-26.98-28.59-.04-5.7,27.02h-17.99ZM541.6,226.89l-10.68-73.08-11.8,73.08h22.48Z"></path><path class="cls-1" d="M949.64,126.85l-128.71,143.88c-1.65-2.28,2.57-5.27,2.43-7.3-.09-1.36-5.5-8.88-5.29-11.78l-11.55,3.24-5.88-9.97c-3.02.26-7.12,4.46-9.87,4.22-1.63-.15-19.58-8.22-22.85-9.68-1.69-.75-5.4-1.87-5.99-3.56h19.67c1.44,0,7.98,7.9,10.12,7.91,3.46-.33,4.2-5.36,6.66-6.86,5.85-3.58,8.77,1.97,10.78,6.81,2.1,1.45,6.29-6.29,9.6-6.78,5.98-.88,8.1,6.71,9.01,6.86,4.15.68,5.42-7.56,11.7-6.28l56.22-85.96-132.64-24.74h186.6Z"></path><path class="cls-1" d="M837.23,172.95l-22.75,4.29c-8.83-5.16-18.68-9.3-26.7-15.54l49.45,11.24Z"></path><path class="cls-1" d="M247.08,126.85l17.42,102.3,15.18-102.3h32.6v147.26h-20.8l-1.69-1.69v-98.36l-15.85,99.92-21.09-.03c-7.16-31.61-9.44-65.08-16.26-96.72-.28-1.32-.14-4.47-1.88-4.29v101.17h-19.11V126.85h31.47Z"></path><polygon class="cls-1" points="149.29 126.85 167.26 192.04 184.7 126.85 205.49 126.85 176.26 226.33 176.26 274.1 153.78 274.1 153.78 222.96 125.68 126.85 149.29 126.85"></polygon></svg> 