<?xml version="1.0" encoding="UTF-8"?> <svg xmlns="http://www.w3.org/2000/svg" id="New_Balance" data-name="New Balance" viewBox="0 0 1000 400"><defs><style> .cls-1 { fill: #2a1a1d; } </style></defs><path class="cls-1" d="M454.51,187.6l77.23-2.56c.99.03,1.62-.72.58-1.26l-144.23-8.43,152.03-5.15c.73.09,1.6-.57.79-1.14l-144.76-8.54,153.47-5.48v-.96s-145.09-8.38-145.09-8.38l153.47-5.48v-.96s-145.09-8.38-145.09-8.38l153.15-5.16-.54-.91-50.08-2.64c-.48-.46,4.19-7.58,4.68-8.7l.64-.33c3.33-.46,6.67-.17,10.01-.31,12.87-.54,25.8-.92,38.66-1.64,1.01-.06,4.9.39,5.33-.48l-1.45-.8-48.96-2.62-.39-.61,4.93-8.7c5.45-.1,10.94-.11,16.39-.3,6.85-.25,13.76-.75,20.61-.99,5.05-.18,10.86.14,15.82-.31.64-.06,2.37-.49,1.05-1.05l-50.54-2.82c-.52-.51,3.91-6.99,4.22-8.19l.77-.52,53.69-1.93v-.96s-50.62-2.9-50.62-2.9l5.06-9.03c4.27-.33,8.57-.14,12.84-.3,10.29-.4,20.63-.94,30.93-1.32,3.42-.12,7.33.63,10.49-.79-2.37-.71-4.83-.33-7.25-.49-14.27-.9-28.55-1.77-42.85-2.28l-1.16-.45,2.79-4.63,107.65-.06c30.47,1.14,45.74,24.13,34.89,52.96-7.23,19.19-28.44,35.75-47.96,40.86.04.46.48.5.8.65,2.07.95,4.57,1.59,6.74,2.61,18.4,8.74,20.98,23.16,16.49,41.87-7.08,29.5-41.35,49.14-69.97,51.89h-142.99s0-3.87,0-3.87c1.6.27,3.16-.26,4.66-.33,11.15-.54,22.4-.3,33.54-.96.71-.04,3.42-.25,3.82-.37.42-.13.62-.47.54-.91l-42.26-2.41-.64-.38-.31-9.14c4.34-.21,8.73-.13,13.07-.31,9.75-.4,19.56-.96,29.31-1.32,1.24-.05,9.18.47,9.2-.79-1.81-1.29-4.24-.66-6.29-.79-15.14-.98-30.4-1.87-45.61-2.59v-8.7l58.86-1.92,1.43-.82c0-1.04-5.77-.75-6.6-.81-10.2-.67-20.44-1.35-30.64-1.93-7.88-.45-15.82-.56-23.69-1.29v-6.61c0-.16-.51-.68-.32-1.13,4.34-.25,8.73-.13,13.07-.31,17.85-.72,36.43-.75,54.17-1.93.34-.02,2.72-.16,2.4-.81-.23-.48-3.33-.76-4.03-.81-1.29-.09-2.6.09-3.88.01-20.58-1.35-41-2.34-61.51-3.55-.21-.06-.54-.73-.54-.82v-6.29ZM582.83,133.44h34.02c2.26,0,8-2.84,10-4.18,6.78-4.53,14.5-13.22,10.95-21.92-4.79-11.74-24.83-8.6-34.83-9.06l-20.14,35.16ZM541.88,205.65h45.94c2.78,0,9.36-2.76,11.87-4.25,15.51-9.21,24.25-34.69-.25-37.67h-33.55s-24.01,41.92-24.01,41.92Z"></path><path class="cls-1" d="M420.33,262.39v25.47c3.2-2.5,6.01-4.75,9.99-5.97,26.03-7.94,44.55,22.59,31.74,44.95-8.74,15.25-30.45,19.59-43.02,6.47v7.41h-12.41l-.48-.48v-77.85h14.19ZM448.59,323.84c16.03-15.87-6.7-40.81-23.9-26.31-18.76,15.81,6.77,43.27,23.9,26.31Z"></path><polygon class="cls-1" points="319.25 282.05 331.66 317.51 341.37 282.08 352.93 282.06 362.78 317.51 374.55 282.05 386.15 282.05 367.47 340.57 358.13 340.68 346.82 303 335.7 340.4 326.7 340.74 307.16 282.05 319.25 282.05"></polygon><path class="cls-1" d="M263.63,317.51c3.49,12.59,20.81,16.22,27.89,4.51h15.31c-7.57,22.13-35.99,26.92-51.11,9.03-13.21-15.63-6.74-40.63,12.1-48.19,22.12-8.88,45.29,10.62,40.61,33.83-.07.36-.13.61-.47.82h-44.33ZM295.23,306.55c-3.61-17.43-28.29-17.15-31.92,0h31.92Z"></path><path class="cls-1" d="M805.94,317.51h-44.49c3.22,12.79,20.7,16.04,27.89,4.51h14.99c-7.22,23.3-38.84,26.93-52.49,6.87-11.34-16.65-3.62-40.69,15.67-46.75,22.49-7.07,43.29,12.67,38.44,35.36ZM792.72,306.55c-3.31-17.57-27.99-17.05-31.92,0h31.92Z"></path><path class="cls-1" d="M607.33,333.3c-6.47,7.31-16.11,9.09-25.41,6.87-16.72-3.98-24.95-22.49-20.45-38.39,5.49-19.42,29.16-28.33,44.58-13.94.21-1.43-.5-3.4.49-4.51h13.22l.48.48v56.9h-12.9v-7.41ZM577.78,298.6c-15.64,15.78,6.73,40.6,24.07,26.16,18.73-15.59-6.82-43.57-24.07-26.16Z"></path><path class="cls-1" d="M517.05,288.17v-4.84h13.86v57.38h-12.9v-7.41c-3.78,3.96-7.64,6.44-13.15,7.33-22.08,3.54-37.83-16.26-33.06-37.25,4.67-20.56,29.31-30.5,45.24-15.21ZM499.58,293.43c-22.97,2.13-20.63,37.63,3.77,35.36,22.21-2.06,19.62-37.53-3.77-35.36Z"></path><path class="cls-1" d="M206.57,287.21l5.82-4.33c15.46-7.43,31.07,4.96,30.93,21.26v36.58s-13.7,0-13.7,0l-.4-.48-.07-33.22c-1.07-19.13-21.86-17.29-21.63,1.29v32.41s-14.17,0-14.17,0v-58.67h13.22v5.16Z"></path><path class="cls-1" d="M679.23,340.72h-14.19v-32.41c-.75-7.48-2.58-15.23-11.78-14.67-9.3.57-9.87,12.14-10.15,19.18-.37,9.25.3,18.64.01,27.9h-13.86v-58.67h12.9v5.48c7.25-7.72,18.31-9.13,27.18-3.16,7.75,5.22,9.52,13.5,9.91,22.33.5,11.2-.4,22.78-.01,34.02Z"></path><path class="cls-1" d="M743.71,301.71h-15.64c-6.38-12.29-24.23-10.28-28.86,2.41-7.16,19.59,16.4,35.07,28.86,17.25h15.64c-5.26,16.92-25.03,25.09-41.16,18.11-21.81-9.44-25.44-39.85-5.5-53.32,17.18-11.6,40.26-4.12,46.66,15.54Z"></path><polygon class="cls-1" points="554.46 262.39 554.46 340.23 553.97 340.72 540.75 340.72 540.27 340.23 540.27 262.39 554.46 262.39"></polygon><polygon class="cls-1" points="508.67 113.46 509 121.52 420.65 116.68 508.67 113.46"></polygon><polygon class="cls-1" points="508.03 98.63 508.35 106.05 429.04 101.53 508.03 98.63"></polygon><path class="cls-1" d="M507.7,90.57l-69.65-3.71c1.63-.01,3.38-.43,4.99-.5,19.55-.81,39.19-1.37,58.68-1.93,1.81-.05,4.5-.31,5.98.5v5.64Z"></path><polygon class="cls-1" points="438.71 203.07 435.65 208.88 434.68 209.23 393.41 206.94 370.03 205.65 438.71 203.07"></polygon><path class="cls-1" d="M430.32,217.9c.25.22-2.81,5.59-3.06,5.8-.3.27-.55.36-.95.34l-64.34-3.57,68.35-2.57Z"></path><path class="cls-1" d="M422.26,232.73c-1.04,1.22-2.34,4.92-3.39,5.8-.3.25-.53.39-.94.35l-63.7-3.57,68.03-2.57Z"></path><path class="cls-1" d="M447.09,188.25c.25.22-2.81,5.58-3.06,5.8-.2.18-.36.34-.66.34l-64.63-3.57,68.35-2.57Z"></path><path class="cls-1" d="M507.06,69.94c.02,1.12-.04,2.26,0,3.38.03.84.82,1.84-.19,2.38l-60.43-3.51,60.61-2.25Z"></path><path class="cls-1" d="M348.11,250.14l1.13-.32,26.43-.98c12.64-.12,25.27-.82,37.9-1.27.26.23-1.12,2.58-1.45,2.58h-64Z"></path><path class="cls-1" d="M506.74,58.01v2.9c-1.48.26-2.95-.28-4.34-.34-15.35-.63-30.71-1.6-46.12-2.24-.4-.02-1.2.25-1.13-.32h51.59Z"></path></svg> 