<?xml version="1.0" encoding="UTF-8"?> <svg xmlns="http://www.w3.org/2000/svg" id="SharkNinja" viewBox="0 0 1000 400"><defs><style> .cls-1 { fill: #2a1a1d; } </style></defs><path class="cls-1" d="M925.78,238.37v1.33l-.97.85c-3.17-.25-23.77.85-25,0-.54-.38-.52-2.44.19-2.84h22.12l-33.22-80.9,2.42-1.13,34.46,82.7Z"></path><path class="cls-1" d="M560.21,126.08l18.78,4.33,1.03.64,49.71,72.77v-65.61c.51-.67,1.85-.14,2.67,0,5.73.95,11.38,2.58,17.12,3.49l.79.54.02,107.41c-4.4.37-8.89,1.42-13.29,1.18l-52.89-68.93v77.24l-23.95,4.48V126.08Z"></path><path class="cls-1" d="M173.01,176.25h-29.27c.41-5.63-3.53-10.81-8.97-12.14-6.33-1.55-18.27,0-19.27,8.02-.69,5.54,1.78,7.41,6.39,9.49,7.15,3.23,15.61,4.28,23.02,6.91,31.24,11.1,28.31,45.5,1.5,59.98-26.3,14.2-72.08,5.09-72.19-30.74h30.94c-.04,6.02,2.02,11.08,8.13,12.97,7.01,2.17,19.94,1.38,23.19-6.43,2.81-6.76-.65-9.96-6.49-12.57-16.66-7.46-37.46-3.47-43.63-25.52-5.81-20.73,8.1-36.74,27.19-42.28,14.15-4.11,36.84-3.77,48.64,6.08,7.94,6.62,10.55,16.19,10.82,26.24Z"></path><path class="cls-1" d="M217.92,144.02l-8.65,40.2c3.55-2.99,7.12-6.1,11.42-8.03,11.7-5.26,32.34-4.81,36.98,9.69,3.08,9.61-1.37,32.8-3.72,43.13-1.68,7.39-3.72,14.92-6.26,21.99h-27.44l9.89-45.44c1.8-9.62-7.31-13.2-15.28-10.94s-9.55,10.87-11.08,17.51c-2.97,12.86-5.2,25.94-7.81,38.87h-28.94l22.62-106.97h28.27Z"></path><polygon class="cls-1" points="464.07 144.02 452.44 197.51 476.88 174.59 510.31 174.59 476.1 205.38 495.68 251 463.41 251 451.93 223.41 445.19 229.64 440.46 251 412.52 251 435.63 144.02 464.07 144.02"></polygon><path class="cls-1" d="M337.34,250h-25.95v-6.31c-10.9,9.46-33.55,14.33-45.06,3.98-9.87-8.87-7.21-28.32,3.37-35.48,5.3-3.59,20.66-6.36,27.22-6.7,6.05-.31,11.38.88,17.02-2.27,7.96-4.44,6.41-15.75-2.73-16.67-6.81-.68-10.8,2.53-13.14,8.63h-28.27c3.72-7.87,9.67-14.76,17.74-18.33,10.87-4.81,35.45-6.49,46.46-2.1,16.73,6.67,13.74,23.64,11.21,38.09-2.19,12.51-7.3,24.35-7.88,37.15ZM315.71,215.45c-3.79,4.22-9.98,2.22-15.09,2.7-4.59.43-9.99,2.77-10.77,7.84-1.04,6.7,2,10.44,8.72,10.73,11.82.51,15.98-11.6,17.14-21.27Z"></path><polygon class="cls-1" points="764.45 202.82 764.45 150.67 781.77 153.52 781.7 236.33 768.55 239.35 767.25 239.06 727.2 186.55 726.2 242.03 709.23 242.36 709.23 146.68 722.4 148.32 764.45 202.82"></polygon><path class="cls-1" d="M898.17,232.72l-6.47-13.31h-33.56s-4.58,13.61-4.58,13.61l-20.59-.3,32.09-76.42,19.65-.34,31.75,76.76h-18.3ZM887.53,205.15l-11.14-29.9-13.81,29.23,24.95.67Z"></path><path class="cls-1" d="M377.26,251h-29.94l16.65-77.06,27.26.32c.43.43-1.78,8.18-1.92,9.55-.05.49-.34.87.42.75,6.26-5.23,13.76-11.37,22.28-11.97,1.55-.11,10.37.11,10.8,1.55l-6.46,24.38-.65.33c-11.9-3.56-24.78-3.58-29.04,10.23l-9.41,41.93Z"></path><path class="cls-1" d="M819.32,155.66c.15,1.19-.29,2.27-.33,3.46-.95,28.61,3.44,65.22-3.2,92.48-3.89,15.96-12.94,26.95-28.38,32.95,5.42-12.63,10.2-25.51,12.53-39.14,1.85-10.83,2.15-21.85,2.78-32.77l-.02-58.98,16.62,2.01Z"></path><path class="cls-1" d="M688.61,144.69v100.66l-16.3,1v-102.16c.98-1.1,2.54-.19,3.81-.15,4.16.13,8.4.05,12.49.65Z"></path><rect class="cls-1" x="529.61" y="104.49" width="4.32" height="191.02"></rect><path class="cls-1" d="M788.77,291.82l-1.01-2.59c9.45-5.05,19.28-11.73,25.27-20.78,7.46-11.27,8.66-25.02,9.65-38.2l.32-74.27,2.85.31s-.18,58.75-.2,59.64c-.69,33.35-.72,54.95-31.95,73.41-.78.46-4.4,2.78-4.92,2.48Z"></path><path class="cls-1" d="M694.6,146.01v104.15c0,.17-1.03,1.49-1.16,1.49h-16.13v-2.99h14.3v-102.65h2.99Z"></path><path class="cls-1" d="M656.34,142.69v112.46c0,.71-2.3,1.01-2.87,1.12-4.73.87-9.68.87-14.42,1.71l-.33-2.99c4.11-.54,8.33-.71,12.43-1.38.85-.14,1.97-.18,2.54-.78v-110.13h2.66Z"></path><path class="cls-1" d="M787.4,154.98v86.21c0,.07-.42,1.04-.52,1.15-1.01,1.16-12.23,2.27-14.43,3l-.33-2.96,12.29-2.51v-84.88h2.99Z"></path><path class="cls-1" d="M589.15,191.86v71.92c0,.15-.41.59-.5.83l-24.11,4.32-.32-2.98,21.94-3.67v-70.43h2.99Z"></path><path class="cls-1" d="M729.52,246.34l-.33-49.83h2.47s.79,51.6.79,51.6c-.22.74-1.35,1.22-2.09,1.23h-19.63s-.78-.55-.78-.55l-.05-2.45h19.63Z"></path><path class="cls-1" d="M854.76,237.71l5.19-14.08c.75-1.24,1.86.25,2.96.14l-5.31,15.46c-.06.37-1.02,1.48-1.18,1.48h-23.28c-.77-.66-.77-2.33,0-2.99h21.62Z"></path><path class="cls-1" d="M871.56,200.17c-.46-.54-2.77-.67-2.66-1.48l4.52-10.83c.65.29,2.47.54,2.42,1.44l-4.28,10.86Z"></path></svg> 