<?xml version="1.0" encoding="UTF-8"?> <svg xmlns="http://www.w3.org/2000/svg" id="THG" viewBox="0 0 1000 400"><defs><style> .cls-1 { fill: #2a1a1d; } </style></defs><path class="cls-1" d="M690.66,121.71l8.18.98c14.73,2.32,29.17,7.77,41.29,16.44,2.19,1.57,4.18,3.41,6.42,4.9v.31l-19.45,24.17c-19.43-17.45-49.3-23.82-71.33-7.06-28.63,21.78-23.13,68.38,9.83,82.8,16.54,7.24,34.62,4.1,49.89-4.55v-40.47h29.35l.47.47v58.61c-27.56,19.22-66.22,26.87-97.72,12.61-33.23-15.04-50.91-49.68-44.41-85.7,6.58-36.46,39.15-61.58,75.54-63.19l.75-.32h11.18Z"></path><polygon class="cls-1" points="460.56 124.19 460.56 187.45 529.81 187.45 529.81 124.19 564.28 124.19 564.28 275.84 529.81 275.84 529.81 215.98 460.56 215.98 460.56 275.84 426.09 275.84 426.09 124.19 460.56 124.19"></polygon><polygon class="cls-1" points="381.07 124.19 381.07 152.88 380.6 153.34 334.49 153.34 334.49 275.84 300.02 275.84 300.02 153.34 253.44 153.34 253.44 124.19 381.07 124.19"></polygon></svg> 