<?xml version="1.0" encoding="UTF-8"?> <svg xmlns="http://www.w3.org/2000/svg" id="Uber" viewBox="0 0 1000 400"><defs><style> .cls-1 { fill: #2a1a1d; } </style></defs><path class="cls-1" d="M278.62,114.42v104.33c.04,20.95,12.33,39.98,33.83,43.54,26.79,4.43,47.65-14.69,48.87-41.08v-106.79s25.35,0,25.35,0v168.16h-25.17v-15.32c-9.08,9.09-20.67,15.27-33.43,17.37-39.83,6.56-73.43-21.28-74.63-61.34v-108.87h25.18Z"></path><path class="cls-1" d="M429.61,114.42v61.1c8.93-8.78,20.26-15.01,32.7-17.15,34.67-5.98,67.85,16.82,74.15,51.36,6.29,34.47-15.78,67.61-50.08,74.47-20.83,4.17-41.96-1.79-56.96-16.74v15.13h-24.03V114.42h24.22ZM468.18,179.16c-30.09,1.98-48.03,35.03-34.5,61.81s50.33,31.33,69.64,8.32c24.16-28.79,2.61-72.61-35.14-70.12Z"></path><path class="cls-1" d="M671.44,229.23h-99.72c2.27,15.2,13.36,28.37,28.05,32.96,10.95,3.42,23.77,2.2,33.76-3.42,5.65-3.17,10.11-7.7,14.16-12.7l17.29,12.97c.09.44-3.47,4.55-4.04,5.18-30.75,33.65-89.19,26.07-108.18-15.95-9.44-20.9-6.96-45.9,6.31-64.5,27.27-38.23,87.69-34.12,106.72,9.77,4.93,11.38,6.08,23.34,5.64,35.69ZM572.38,210.13h74.17l.25-.43c-3.18-14.02-13.38-25.96-27.51-29.63-19.38-5.03-38.2,5.44-45.26,23.77-.47,1.23-1.83,4.78-1.87,5.9,0,.23.03.25.21.39Z"></path><path class="cls-1" d="M746.56,159.06v22.7c-5.96.19-12.02-.63-17.83,1-12.67,3.55-19.18,15.89-19.65,28.41v71.41s-24.21,0-24.21,0v-122.57h24.03v14.94l3.79-5.01c4.14-4.58,9.44-7.92,15.43-9.54s12.2-1.35,18.43-1.34Z"></path></svg> 