<?xml version="1.0" encoding="UTF-8"?> <svg xmlns="http://www.w3.org/2000/svg" id="V_A" data-name="V&amp;amp;A" viewBox="0 0 1000 400"><defs><style> .cls-1 { fill: #2a1a1d; } </style></defs><path class="cls-1" d="M302.85,91.9c.36-.51.56-.97,1.23-1.16l85.1-.08c1.76-.27,2.88,1.84,1.77,3.12-.33.38-.98.51-1.47.58-4.71.65-11.65,0-14.62,4.63-1.87,2.93-.76,6.29-.05,9.41l43.31,136.22c.28.09.36-.43.45-.62.74-1.65,1.38-3.49,2.05-5.19,16.06-40.77,32.25-81.57,47.74-122.55,1.59-4.22,5.53-12.77,4.01-17.02-2.1-5.86-12.37-4.3-17.22-5.26-2.4-.75-1.55-3.47.85-3.33l44.25.11c.39.15.89.4,1.02.82.92,3.02-2.96,2.42-4.76,2.61-7.74.81-12,1.52-15.46,9.03l-83.16,208.47c-.34,1.13-1.69,1.43-2.15.25-22.97-68.58-45.47-137.35-68.69-205.84-2.25-4.78-5.23-9-10.54-10.56-3.17-.93-6.49-.85-9.74-1.19-1.36-.14-3.18-.13-3.93-1.38v-1.08Z"></path><path class="cls-1" d="M587.05,87.49c1.5-1.49,2.29,1.42,2.68,2.37l78.3,202.71c4.92,10.31,11.49,13.67,22.54,15.03,1.39.17,5.33.07,6.15,1.08,1.03,1.26.1,3.06-1.53,2.93h-92.42c-1.39-.06-2.07-1.12-1.66-2.45.32-1.04,1.39-1.1,2.3-1.24,7.53-1.13,18.42-.62,16.18-11.91-17.37-49.21-35.68-98.09-53.25-147.24,6.35-18.82,12.34-37.79,18.91-56.54.3-.85,1.38-4.35,1.79-4.75Z"></path><path class="cls-1" d="M478.57,219.68l-.08-.45c-6.62-9.55-12.23-20.23-12.85-32.11-1.59-30.54,29.87-42.92,55.63-35.44,13.97,4.06,26.66,14.36,21.99,30.52-4.49,15.53-22.57,21.51-35.11,28.94l40.27,63.04c5.64-8.57,9.97-18.38,12.66-28.29,1.12-4.13,3.11-12.31,2.28-16.36-1.02-5.03-6.41-5.52-10.64-6-1.24-.14-4.48.03-5.32-.84s-.46-2.31.66-2.73l37.78.02c2.06,1.61.89,2.96-1.29,3.35-4.59.83-8.25.41-11.66,4.35-3.1,3.59-4.83,14.07-6.39,19.02-3.53,11.27-8.69,22.02-15.4,31.71,4.69,6.97,8.77,15.58,15.48,20.86,4.47,3.51,11.71,4.87,14.93-.91.95-1.7,1.95-5.46,4.7-4.24,2.71,1.21.08,4.98-1.08,6.46-11.76,14.97-40.12,14.23-52.9,1.01-.81-.83-1.53-1.88-2.31-2.75-7.01,4.92-14.77,8.77-23.03,11.13-16.54,4.74-37.86,4.23-52.81-4.94-21.62-13.26-25.28-41.92-10.46-61.85,8.6-11.57,21.56-18.74,34.93-23.51ZM502.1,153.68c-11.52.82-15.2,10.11-13.32,20.46,1.28,7.07,4.89,13.3,8.45,19.42,2.76,4.73,5.69,9.36,8.67,13.95,12.06-7.96,17-22.47,14.35-36.51-1.75-9.25-7.69-18.07-18.16-17.32ZM480.65,222.93c-14.3,8.94-20.12,26.45-16.66,42.67,5.19,24.33,31.34,43.71,56.01,33.45,2.54-1.05,4.91-2.42,7.24-3.85l.14-.17-46.73-72.11Z"></path></svg> 