<?xml version="1.0" encoding="UTF-8"?> <svg xmlns="http://www.w3.org/2000/svg" id="Conde_Nast" data-name="Conde Nast" viewBox="0 0 1000 400"><defs><style> .cls-1 { fill: #2a1a1d; } </style></defs><path class="cls-1" d="M745.63,205.28c19.91,0,31.73,11.32,31.73,30.15h-26.42c0-4.8-1.96-7.14-5.44-7.14-2.47,0-4.3,1.45-4.3,3.79,0,3.22,2.72,4.43,8.47,7.78l8.34,4.68c14.03,7.9,17.2,16.25,17.2,25.73,0,16.5-11.7,26.8-30.28,26.8-21.51,0-34.02-11.52-34.07-30.72h26.61c0,4.8,2.21,7.65,6.13,7.65,2.59,0,4.17-1.71,4.17-4.3,0-3.92-4.05-5.56-7.4-7.27l-7.52-4.05c-10.81-5.75-18.58-13.15-18.58-26.42,0-15.87,12.77-26.68,31.36-26.68ZM626.28,229.43h-35.78v10.68h35.78v21.75h-35.78v11.32h35.78v22.38h-64.1v-88.5h64.1v22.38ZM294.19,256.87l12.45-49.82h35.4v88.44h-28.32v-50.07l-13.91,50.07h-11.32l-13.91-50.07v50.07h-28.32v-88.44h35.28l12.64,49.82ZM556.73,229.68h-18.96v65.81h-28.32v-65.81h-19.16v-22.63h66.44v22.63ZM676.22,207.05c20.54,0,32.24,10.68,32.24,26.68,0,10.3-5.18,18.21-14.16,22.63l18.33,39.13h-28.89l-14.29-33.06h-5.75v33.06h-28.32v-88.44h40.84ZM423.54,295.49h-28.51l-1.71-12.07h-14.67l-1.58,12.07h-28.32l17.83-88.44h39.13l17.83,88.44ZM484.92,229.68h-18.96v65.81h-28.32v-65.81h-19.16v-22.63h66.44v22.63ZM710.86,266.35h-.19l.19-.13s0,.08,0,.13ZM381.31,263.25h9.48l-4.68-36.29-4.8,36.29ZM663.7,242.9h8.34v-.06c5.31,0,8.72-2.97,8.72-7.52s-3.35-7.4-8.72-7.4h-8.34v14.98ZM354.82,103.55c8.28,0,16.06,2.09,23.07,6.2,7.02,4.11,12.64,9.74,16.75,16.75,1.71,2.97,3.03,6.07,4.05,9.23h11.5v-30.85h35.46l7.84,30.85h9.61l7.71-30.85h35.47v30.85h10.43v-30.85h35.47l7.84,30.85h9.61l7.71-30.85h35.47v30.85h11.63c.95-3.22,2.34-6.26,4.05-9.23,4.11-7.02,9.74-12.64,16.75-16.75,7.02-4.11,14.79-6.2,23.07-6.2h77.06c8.28,0,16.06,2.09,23.07,6.2,7.02,4.11,12.65,9.74,16.75,16.75h-.13c4.11,7.02,6.19,14.79,6.19,23.07s-2.09,16.06-6.19,23.08c-4.11,7.02-9.74,12.64-16.75,16.75-7.02,4.11-14.79,6.2-23.08,6.2h-77.06c-8.28,0-16.06-2.09-23.07-6.2-7.02-4.11-12.64-9.74-16.75-16.75-2.15-3.73-3.79-7.71-4.8-11.82h-10.87v32.62h-28.45v-32.62h-4.87l-9.04,32.62h-11.32l-9.04-32.62h-4.87v32.62h-28.45v-32.62h-10.43v32.62h-28.45v-32.62h-4.87l-9.04,32.62h-11.32l-9.04-32.62h-4.87v32.62h-28.45v-32.62h-10.75c-1.01,4.11-2.59,8.09-4.81,11.82-4.11,7.02-9.74,12.64-16.75,16.75-7.02,4.11-14.79,6.2-23.07,6.2h-83.13c-8.28,0-16.06-2.09-23.08-6.2-7.02-4.11-12.64-9.74-16.75-16.75-4.11-7.02-6.2-14.79-6.2-23.08,0-8.28,2.09-16.06,6.2-23.07,4.11-7.02,9.74-12.64,16.75-16.75,7.02-4.11,14.79-6.2,23.08-6.2h83.13ZM173.51,102.93c23.9,0,41.72,14.48,45.14,39.51h-27.75c-2.09-8.22-8.91-13.4-18.27-13.4-11.32,0-19.16,8.22-19.16,19.98s7.84,20.23,19.28,20.23v-.13c9.55,0,16.31-5.31,18.14-15.24h27.88c-2.21,25.98-20.23,41.34-45.26,41.34-28.19,0-47.86-19.41-47.86-46.4,0-26.99,19.72-45.9,47.86-45.9ZM846.08,148.19v-43.37h28.26v88.63h-28.26l-18.4-42.1v42.1h-28.45v-88.63h28.45l18.4,43.37ZM271.69,127.13c-4.17,0-7.84.95-11.32,2.97-3.48,2.02-6.13,4.68-8.15,8.16-2.02,3.48-2.97,7.14-2.97,11.32s.95,7.84,2.97,11.32c1.96,3.41,4.74,6.2,8.15,8.16,3.48,2.02,7.14,2.97,11.32,2.97h83.13c4.17,0,7.84-.95,11.32-2.97,3.48-2.02,6.13-4.68,8.15-8.16,1.33-2.34,2.21-4.8,2.66-7.4h269.24c.38,2.59,1.33,5.06,2.65,7.4,1.96,3.41,4.74,6.2,8.16,8.16,3.48,2.02,7.14,2.97,11.32,2.97h77.06c4.17,0,7.84-.95,11.32-2.97,3.48-2.02,6.13-4.68,8.16-8.16h.06c2.02-3.48,2.97-7.14,2.97-11.32s-.95-7.84-2.97-11.32c-2.02-3.48-4.68-6.13-8.15-8.16-3.41-1.96-7.21-2.97-11.32-2.97h-77.06c-4.17,0-7.84.95-11.32,2.97-3.48,2.02-6.13,4.68-8.16,8.16-.89,1.58-1.58,3.16-2.09,4.81h-270.44c-.51-1.71-1.2-3.29-2.09-4.81-2.02-3.48-4.68-6.13-8.15-8.16-3.41-1.96-7.21-2.97-11.32-2.97h-83.13Z"></path></svg> 