<?xml version="1.0" encoding="UTF-8"?> <svg xmlns="http://www.w3.org/2000/svg" id="Conde_Nast" data-name="Conde Nast" viewBox="0 0 1000 400"><defs><style> .cls-1 { fill: #2a1a1d; } </style></defs><path class="cls-1" d="M235.8,71.88c-.27-3.41-.77-6.52-1.51-9.33-.74-2.81-1.77-5.42-3.11-7.83v-.8h39.93c12.57,0,23.58,2.88,33.01,8.63,9.43,5.75,16.69,13.88,21.77,24.38,5.08,10.5,7.63,22.71,7.63,36.62s-2.54,26.16-7.63,36.72c-5.08,10.57-12.38,18.73-21.87,24.48-9.5,5.75-20.47,8.63-32.91,8.63h-39.93v-.8c1.34-2.41,2.37-5.05,3.11-7.93.73-2.88,1.24-5.99,1.51-9.33.27-3.34.4-7.36.4-12.04v-79.26c0-4.68-.14-8.73-.4-12.14ZM292.38,174.12c6.82-4.15,12.11-10.47,15.85-18.96,3.75-8.49,5.62-19.03,5.62-31.6s-1.87-23.11-5.62-31.6c-3.75-8.49-9.03-14.81-15.85-18.96-6.82-4.15-14.78-6.22-23.88-6.22h-14.25v113.58h14.25c9.1,0,17.06-2.07,23.88-6.22Z"></path><path class="cls-1" d="M345.45,71.88c-.27-3.41-.77-6.52-1.5-9.33-.74-2.81-1.77-5.42-3.11-7.83v-.8h79.26v22.07h-1c-1.47-2.14-3.35-3.88-5.62-5.22-2.28-1.34-5.09-2.31-8.43-2.91-3.35-.6-7.42-.9-12.24-.9h-28.9v49.36h22.07c4.14,0,7.73-.23,10.74-.7,3.01-.47,5.52-1.2,7.52-2.21s3.74-2.31,5.22-3.91h1v26.49h-1c-1.34-1.61-3.04-2.91-5.12-3.91-2.08-1-4.58-1.74-7.53-2.21-2.94-.47-6.56-.7-10.84-.7h-22.07v50.97h30.5c4.68,0,8.73-.37,12.14-1.1,3.41-.73,6.32-1.94,8.73-3.61,2.41-1.67,4.41-3.98,6.02-6.92h1v24.88h-81.47v-.8c1.34-2.41,2.37-5.05,3.11-7.93.73-2.88,1.24-5.99,1.5-9.33.27-3.34.4-7.36.4-12.04v-79.26c0-4.68-.14-8.73-.4-12.14Z"></path><path class="cls-1" d="M448.03,192.58c-5.55-1.74-10.6-4.28-15.15-7.63v-22.88h1.2c3.88,6.42,8.46,11.34,13.75,14.75,5.28,3.41,11,5.12,17.16,5.12,4.55,0,8.63-.9,12.24-2.71,3.61-1.81,6.45-4.38,8.53-7.73,2.07-3.34,3.11-7.36,3.11-12.04s-1.24-8.9-3.71-12.24c-2.48-3.34-6.59-7.02-12.34-11.04l-14.65-9.23c-7.49-4.82-13.11-10.16-16.86-16.05-3.75-5.88-5.62-12.64-5.62-20.27,0-7.09,1.74-13.58,5.22-19.46,3.48-5.89,8.33-10.57,14.55-14.05,6.22-3.48,13.28-5.22,21.17-5.22,5.35,0,10.33.64,14.95,1.91,4.62,1.27,8.59,3.04,11.94,5.32v21.87h-1.2c-2.54-5.08-6.09-9-10.64-11.74-4.55-2.74-9.5-4.11-14.85-4.11-4.41,0-8.43.87-12.04,2.61-3.61,1.74-6.42,4.25-8.43,7.52-2.01,3.28-3.01,7.19-3.01,11.74s1.17,8.8,3.51,12.34c2.34,3.55,6.25,7.06,11.74,10.53l15.25,9.83c7.49,4.82,13.14,10.03,16.96,15.65,3.81,5.62,5.72,12.38,5.72,20.27s-1.77,14.45-5.32,20.47c-3.55,6.02-8.46,10.7-14.75,14.05-6.29,3.34-13.31,5.02-21.07,5.02-6.02,0-11.81-.87-17.36-2.61Z"></path><path class="cls-1" d="M523.52,71.88c-.27-3.41-.77-6.52-1.5-9.33-.74-2.81-1.77-5.42-3.11-7.83v-.8h28.09v.8c-1.34,2.41-2.38,5.02-3.11,7.83-.74,2.81-1.24,5.92-1.51,9.33-.27,3.41-.4,7.46-.4,12.14v79.26c0,4.68.13,8.7.4,12.04.27,3.35.77,6.46,1.51,9.33.73,2.88,1.77,5.52,3.11,7.93v.8h-28.09v-.8c1.34-2.41,2.37-5.05,3.11-7.93.73-2.88,1.24-5.99,1.5-9.33.27-3.34.4-7.36.4-12.04v-79.26c0-4.68-.14-8.73-.4-12.14Z"></path><path class="cls-1" d="M586.09,186.26c-8.96-5.95-15.92-14.28-20.87-24.98-4.95-10.7-7.42-22.88-7.42-36.52s2.71-26.19,8.13-37.22c5.42-11.04,13.01-19.73,22.77-26.09,9.76-6.35,20.87-9.53,33.31-9.53,6.55,0,12.67.7,18.36,2.11,5.68,1.4,10.8,3.45,15.35,6.12v22.47h-1c-3.61-5.75-8.13-10.06-13.54-12.94-5.42-2.87-11.47-4.31-18.16-4.31-9.23,0-17.29,2.54-24.18,7.63-6.89,5.09-12.21,12.11-15.95,21.07-3.75,8.96-5.62,19.13-5.62,30.5s1.71,21.24,5.12,30c3.41,8.76,8.29,15.62,14.65,20.57,6.35,4.95,13.75,7.42,22.17,7.42,2.81,0,5.52-.23,8.13-.7,2.61-.47,5.18-1.24,7.73-2.31v-28.29c0-4.55-.2-8.49-.6-11.84-.4-3.34-1.04-6.42-1.91-9.23-.87-2.81-2.11-5.48-3.71-8.03v-.8h28.9v.8c-1.34,2.54-2.34,5.22-3.01,8.03-.67,2.81-1.14,5.85-1.4,9.13-.27,3.28-.4,7.26-.4,11.94v32.91c-5.09,3.48-10.67,6.19-16.75,8.13-6.09,1.94-12.48,2.91-19.16,2.91-11.64,0-21.94-2.98-30.9-8.93Z"></path><path class="cls-1" d="M672.9,61.94l-3.81-7.83v-.2h26.29l53.38,108.76h1v-78.66c0-4.68-.17-8.73-.5-12.14-.34-3.41-.87-6.52-1.61-9.33-.74-2.81-1.77-5.42-3.11-7.83v-.8h24.28v.8c-1.34,2.41-2.38,5.02-3.11,7.83-.74,2.81-1.24,5.92-1.5,9.33-.27,3.41-.4,7.46-.4,12.14v109.36h-19.67l-56.19-114.18h-1v84.08c0,4.55.17,8.53.5,11.94.33,3.41.87,6.56,1.61,9.43.73,2.88,1.77,5.52,3.11,7.93v.8h-24.28v-.8c1.34-2.41,2.37-5.05,3.11-7.93.73-2.88,1.24-5.99,1.51-9.33.27-3.34.4-7.36.4-12.04V61.94Z"></path><path class="cls-1" d="M236.2,216.65l-3.81-7.83v-.2h26.29l53.38,108.76h1v-78.66c0-4.68-.17-8.73-.5-12.14-.34-3.41-.87-6.52-1.61-9.33-.74-2.81-1.77-5.42-3.11-7.83v-.8h24.28v.8c-1.34,2.41-2.38,5.02-3.11,7.83-.74,2.81-1.24,5.92-1.5,9.33-.27,3.41-.4,7.46-.4,12.14v109.36h-19.67l-56.19-114.18h-1v84.08c0,4.55.17,8.53.5,11.94.33,3.41.87,6.56,1.61,9.43.73,2.88,1.77,5.52,3.11,7.93v.8h-24.28v-.8c1.34-2.41,2.37-5.05,3.11-7.93.73-2.87,1.24-5.99,1.51-9.33.27-3.34.4-7.36.4-12.04v-101.33Z"></path><path class="cls-1" d="M349.57,226.59c-.27-3.41-.77-6.52-1.5-9.33-.74-2.81-1.77-5.42-3.11-7.83v-.8h79.26v22.07h-1c-1.47-2.14-3.35-3.88-5.62-5.22-2.28-1.34-5.09-2.31-8.43-2.91-3.35-.6-7.42-.9-12.24-.9h-28.9v49.36h22.07c4.14,0,7.73-.23,10.74-.7,3.01-.47,5.52-1.2,7.52-2.21,2.01-1,3.74-2.31,5.22-3.91h1v26.49h-1c-1.34-1.61-3.04-2.91-5.12-3.91-2.08-1-4.58-1.74-7.53-2.21-2.94-.47-6.56-.7-10.84-.7h-22.07v50.97h30.5c4.68,0,8.73-.37,12.14-1.1,3.41-.73,6.32-1.94,8.73-3.61,2.41-1.67,4.41-3.98,6.02-6.92h1v24.88h-81.47v-.8c1.34-2.41,2.37-5.05,3.11-7.93.73-2.87,1.24-5.99,1.5-9.33.27-3.34.4-7.36.4-12.04v-79.26c0-4.68-.14-8.73-.4-12.14Z"></path><path class="cls-1" d="M478.69,276.45l-22.47-39.13c-4.15-6.95-7.63-12.51-10.43-16.65-2.81-4.15-5.82-7.89-9.03-11.24v-.8h30.7v.6c-.13,2.28.17,4.89.9,7.83.73,2.94,1.81,6.09,3.21,9.43,1.41,3.35,3.18,6.82,5.32,10.43l12.64,23.08h1l12.84-23.28c2.27-3.88,4.05-7.42,5.32-10.64,1.27-3.21,2.17-6.22,2.71-9.03.53-2.81.67-5.35.4-7.63v-.8h25.48v.8c-2.28,2.41-4.41,5.02-6.42,7.83-2.01,2.81-4.11,5.95-6.32,9.43-2.21,3.48-4.38,7.09-6.52,10.84l-19.87,35.52,25.28,44.35c.93,1.47,1.81,2.94,2.61,4.42,3.88,6.69,7.09,11.87,9.63,15.55,2.54,3.68,5.22,6.99,8.03,9.93v.8h-30.7v-.8c.13-2.27-.07-4.78-.6-7.52-.54-2.74-1.51-5.72-2.91-8.93-1.41-3.21-3.25-6.75-5.52-10.64l-16.86-30.9h-.8l-16.25,30.3c-2.28,3.88-4.15,7.49-5.62,10.84-1.47,3.35-2.51,6.46-3.11,9.33-.6,2.88-.77,5.45-.5,7.73v.6h-25.69v-.8c2.14-2.27,4.15-4.65,6.02-7.12,1.87-2.47,3.81-5.25,5.82-8.33,1.61-2.54,3.01-4.82,4.21-6.82,1.2-2.01,2.67-4.48,4.41-7.42l23.08-41.14Z"></path><path class="cls-1" d="M581.02,221.47h-11.64c-4.55,0-8.46.37-11.74,1.1-3.28.74-6.02,1.87-8.23,3.41-2.21,1.54-4.11,3.51-5.72,5.92h-1v-23.28h94.91v23.28h-1c-1.47-2.41-3.35-4.38-5.62-5.92-2.28-1.54-5.05-2.67-8.33-3.41-3.28-.73-7.19-1.1-11.74-1.1h-11.84v96.52c0,4.68.17,8.73.5,12.14.33,3.41.9,6.52,1.71,9.33.8,2.81,1.94,5.42,3.41,7.83v.8h-29.1v-.8c1.47-2.41,2.61-5.02,3.41-7.83.8-2.81,1.34-5.92,1.61-9.33.27-3.41.4-7.46.4-12.14v-96.52Z"></path></svg> 