<?xml version="1.0" encoding="UTF-8"?> <svg xmlns="http://www.w3.org/2000/svg" id="Conde_Nast" data-name="Conde Nast" viewBox="0 0 1000 400"><defs><style> .cls-1 { fill: #2a1a1d; } </style></defs><polygon class="cls-1" points="490.08 228.25 490.09 228.23 490.08 228.23 490.08 228.25"></polygon><path class="cls-1" d="M528.4,121.45l.31.94-38.62,105.84,14.6-.1c5.85-16.99,11.53-34.2,19.64-50.25,9.87-19.56,34.36-60.09,59.9-57.42,1.42.14,4.26,1.78,5.37,1.08,3.42-7.05.96-15.84-7.97-15.76-13.14.12-32.58,26.28-39.71,36.53-4.67,6.71-9,13.79-12.95,20.96l19.95-57.2c-.89-.12-1.56.14-2.36.51-2.94,1.37-7.58,5.41-11.12,7.32-7.12,3.85-15.93,7.89-24.16,7-2.24-.24-3.2-2.7-5.44.38-1.78,2.45-1.85,8.23.72,10.13,6.26,4.67,17.52-5.75,21.83-9.96Z"></path><path class="cls-1" d="M334.69,268.25c5.2-3.34,13.19-6.04,19.06-9.58,17.59-10.64,38.67-29.22,45.72-48.97,8.62-24.14-2.14-46.3-30.03-34-32.66,14.39-62.43,73.33-51.14,107.69,6.88,20.89,24.33,26.86,43.66,16.87,10.52-5.44,18.02-16.2,22.69-26.81.94-2.17,6.33-16.12,4.96-17.11l.02.05c-1.92-1.37-4.21,6.98-4.88,8.35-6.98,14.29-21.54,30.8-39.37,27.05-9.51-2.02-20.65-17.11-10.69-23.54ZM329.86,246.62c1.4-19.73,19.88-61.39,41.08-66.08h.02c7.51-1.66,14.51,1.59,16.92,9.05,7.36,22.79-21.2,55.78-39.15,67.12-13.38,8.45-20.12,7.44-18.87-10.08Z"></path><path class="cls-1" d="M487,164.14s0,.02.01.03h.04s-.05-.03-.05-.03Z"></path><path class="cls-1" d="M468.18,265.41c9.17-3.95,16.03-17.98,19.28-26.91-.96.1-1.76-.19-2.55.6-1.23,1.25-4.36,8.88-6.4,11.53-2.86,3.68-7.97,8.81-12.71,5.1-3.78-2.96-1.9-9.22-.99-13.33,4.74-21.13,13.21-44.02,19.2-65.15.5-1.82,3.66-12.32,2.99-13.09l-11.68.86c-4.26,11.5-7.53,23.58-12.23,35.04-5.99,14.58-18.24,40.98-28.76,52.2-12.97,13.84-19.28.14-19.4-13.14-.14-17.47,15.06-69.02,28.06-80.62,8.66-7.72,21.37-6.67,32.18-5.03,7.58,1.16,14.44,4.16,21.66,6.09.05-3.66,4.89-10.78,1.8-13.4-2.33-1.97-11.29-4.62-14.51-5.15-16.46-2.67-29.12,1.95-41.42,12.56-22.07,19.01-42.67,58.46-42.28,87.91.26,19.83,13,39.9,32.18,21.15,12.01-11.72,18.92-30.08,26.26-44.88l-7.48,29.65c-1.69,10.9,3.9,23.54,16.8,18Z"></path><path class="cls-1" d="M298.69,285.94c-14.22-4.86-6.11-20.53-1.44-29.72,19.69-38.84,43.37-77.61,65.14-115.3,4.52-5.41,9.48-10.69,17.3-9.46l.36-2.5-41.46-6.06-.99,2.41c9.53,1.78,9.43,8.06,6.47,15.81-4.45,11.62-12.47,23.39-17.71,34.77l-38.24,68.42c3.22-17.13,3.47-37.09-5.82-52.41-2.72-4.45-6.64-8.09-9.58-12.37,6.98-19.11,8.95-41.73,1.4-60.93-5.58-14.17-18.68-27.03-35.16-23.1-7.99,1.9-8.59,9.99-.6,8.95,2.6-.34,5.66-2.5,7.56-2.65,10.57-.79,19.13,6.67,22.57,15.98,6.43,17.38,1.16,37.85-6.02,54.24-.7.77-.91.38-1.64.14-1.76-.6-3.92-2.09-5.97-2.86-34-12.85-78.43-4.55-96.96,29.1-12.03,21.8-8.69,66.06,25.12,56.96,3.99-1.06,13.93-6.14,10.59-11.43-4.45-7.05-10.56,7.77-16.29,8.28-12.68,1.13-18.53-10.28-18.02-21.35,1.95-43.9,62.4-76.65,100.14-53.11-10.88,23.61-25.92,45.97-42.76,65.7-20.67,24.26-64.38,66.54-99.61,55.18-6.04-1.95-13.14-9.17-19.23-8.13-4.31.75-3.73,5.85-.46,8.23,12.3,9,36.17,5.94,50.1,2.07,47.14-13.16,94.12-58.41,116.65-101,.94-1.76,5.7-13.07,6.45-13.12,17.47,18.29,19.04,47.39,10.4,70.22-4.14,10.95-12.08,23.73-25.44,22.55l-1.1,2.27,43.93,6.42c.1.02,1.06-1.9.31-2.19Z"></path><polygon class="cls-1" points="254.43 281.73 254.44 281.71 254.41 281.7 254.43 281.73"></polygon><path class="cls-1" d="M665.28,294.94c-14.01-5.63-5.17-20.62.02-29.75,21.92-38.46,47.22-75.69,71.35-112.7,2.79-3.1,6.69-6.88,10.93-7.87,3.01-.7,5.92.72,7.36-2.31l-41.73-8.25c-.1,0-1.13,1.85-.43,2.19,9.07,3.44,8.25,8.37,4.91,16.15-5.05,11.77-13.84,22.96-19.57,34.46l-41.37,65.99c4.96-19.9,5.25-40.98-6.64-58.43-.96-1.42-5.49-5.94-5.49-7.05,5.63-13.55,8.78-27.89,7.94-42.64-1.03-18.29-9.77-41.49-30.85-43.58-3.99-.38-15.23.99-13.07,7.12,1.66,4.74,12.47-.48,16.27,0,25.27,3.25,22.12,39.15,16.17,56.41-.65,1.9-5.68,13.96-6.38,14.66-.77.77-.89.39-1.64.05-1.54-.75-3.25-2.14-5.2-3.03-29.5-13.28-65.22-10.52-89.04,12.27-14.27,13.64-22.98,36.24-15.52,55.52,5.29,13.69,22.26,19.76,34.75,11.84,3.39-2.14,7.99-8.69,1.95-9.99-5.51-1.2-8.28,9.17-14.9,9.22-12.75.1-17.42-11.98-16.29-22.86,4.52-43.32,66.35-73.13,102.54-47.43-12.01,22.81-28.06,44.4-45.65,63.17-21.83,23.25-67.98,63.56-102.57,50.47-5.94-2.24-12.66-9.82-18.8-9.07-4.33.53-4.02,5.66-.87,8.21,11.86,9.6,35.86,7.75,49.96,4.57,44.67-10.08,92.72-50.01,117.13-87.98,4.14-6.45,7.48-13.38,11.53-19.88,16.6,18.92,16.56,48.42,6.86,70.66-4.67,10.66-13.33,23.01-26.54,21.25l-1.2,2.24.02-.02,43.61,8.62c.1,0,1.16-1.85.43-2.19Z"></path><path class="cls-1" d="M768.74,257.85c-.82,1.08-2.09,5.92-3.03,7.77-1.42,2.84-2.98,5.27-4.76,7.89v-.02c-7.8,11.53-21.23,22.62-36.29,18.1-7.03-2.12-15.19-12.54-11.84-19.69,1.97-4.21,5.29-3.99,8.83-5.82,21.37-11.12,46.11-28.08,56.79-50.39,11.79-24.64,3.54-54.12-28.66-39.25-33.45,15.47-65.91,80.23-47.34,114.58,8.47,15.69,25.03,17.42,40.14,9.91,15.43-7.65,25.73-27.72,28.23-44.06-1.08.05-1.4.12-2.07.99ZM711.87,240.96c3.47-18.65,21.71-60.02,43.97-60.6,6.79-.17,12.03,4.48,13.74,10.85,3.59,13.48-5.25,29.5-13.04,40.02-6.11,8.25-14.1,16.77-22.43,22.86-3.97,2.91-13.79,9.7-18.43,7.72-6.71-2.84-4.93-14.82-3.8-20.86Z"></path><path class="cls-1" d="M869.16,186.4c-32.73,10.85-68.32,53.33-68.32,88.54,0,12.63,7.6,26.86,21.03,29.24,21.66,3.83,37.9-9.1,49.29-25.94,1.4-2.05,5.22-7.68,5.94-9.6.53-1.42-1.47-1.13-2.33-.96v-.02c-8.95,16.1-32.9,33.62-51.33,22.77-6.98-4.09-13.02-20.07-3.9-24.07,29.05-5.17,71.33-21.27,82.83-50.95,10.44-26.95-9.31-36.92-33.21-29ZM834.89,258.79c-10.49,3.01-18.15,2.7-15.14-10.76,4.31-19.25,33.45-56.94,54.34-58.62h-.02c7-.55,14.68,2.58,16.44,9.87,6.04,25.15-34.89,53.55-55.62,59.51Z"></path><path class="cls-1" d="M872.24,163.81c3.59-.12,3.54-11.84-1.97-14.68-9.19-4.74-20.74,6.23-26.66,12.44-12.13,12.71-21.11,28.23-30.68,42.81l19.44-56c-.99-.89-8.78,5.05-10.3,5.92-7.03,4-18.96,10.23-27.05,8.76-2.53-.46-3.63-2.86-5.68.65-2.19,3.78-1.59,10.59,3.61,11.09,7.08.7,14.05-6.57,18.94-10.97l.31.94-38.28,105.96,14.6-.14c10.16-30.23,21.66-61.56,42.33-86.35,9.6-11.55,25.17-25.9,41.39-20.43Z"></path><polygon class="cls-1" points="773.91 270.75 773.92 270.73 773.91 270.73 773.91 270.75"></polygon></svg> 