<svg xmlns="http://www.w3.org/2000/svg" version="1.1" xmlns:xlink="http://www.w3.org/1999/xlink" width="512" height="512"><svg xmlns="http://www.w3.org/2000/svg" version="1.1" xmlns:xlink="http://www.w3.org/1999/xlink" width="512" height="512"><svg width="512" height="512" viewBox="0 0 512 512" fill="none" xmlns="http://www.w3.org/2000/svg">
<g clip-path="url(#clip0_2184_12348)">
<circle cx="256" cy="256" r="256" fill="#1D3023"></circle>
<path d="M258.823 426.957C280.748 426.275 300.847 416.33 315.409 398.947C329.771 381.803 337.286 359.25 336.543 335.454C335.812 311.835 326.92 289.891 311.517 273.666C304.361 266.126 296.078 260.182 286.881 255.979C294.47 252.185 301.468 246.74 307.693 239.791C318.327 227.914 326.329 211.689 330.861 192.845C332.572 192.687 334.296 192.583 335.983 192.528C355.363 191.925 374.84 197.992 389.421 209.174C404.202 220.502 412.613 235.661 413.119 251.85C413.594 267.155 408.076 280.439 396.699 291.359C386.43 301.219 371.698 308.625 354.09 312.773L353.603 312.889C355.052 318.376 356.209 325.155 356.684 330.941L357.251 330.789C378.05 325.161 395.426 315.599 407.504 303.144C421.012 289.203 427.559 272.399 426.963 253.171C426.28 231.246 416.335 211.153 398.952 196.591C381.802 182.223 359.255 174.72 335.453 175.463C311.828 176.194 289.884 185.08 273.659 200.483C266.125 207.633 260.181 215.904 255.984 225.082C252.19 217.512 246.751 210.526 239.808 204.307C227.925 193.673 211.694 185.664 192.844 181.139C192.686 179.428 192.582 177.704 192.528 176.011C191.919 156.278 197.832 137.282 209.209 122.512C220.562 107.773 235.709 99.3805 251.855 98.8811C267.154 98.406 280.45 103.93 291.37 115.295C301.231 125.564 308.637 140.296 312.79 157.91L312.906 158.397C318.406 156.942 325.184 155.785 330.958 155.309L330.806 154.743C325.178 133.944 315.616 116.568 303.155 104.497C289.208 90.9878 272.392 84.4405 253.171 85.0374C231.245 85.7195 211.146 95.6653 196.584 113.048C182.923 129.352 175.401 150.76 175.401 173.337C175.401 174.391 175.419 175.469 175.45 176.541C176.187 200.16 185.073 222.104 200.476 238.329C207.632 245.869 215.915 251.813 225.112 256.016C217.523 259.81 210.525 265.255 204.3 272.204C193.666 284.081 185.664 300.306 181.132 319.15C179.421 319.308 177.697 319.412 176.01 319.466C156.63 320.069 137.153 314.003 122.572 302.821C107.791 291.493 99.3796 276.334 98.8741 260.145C98.3869 244.864 103.911 231.562 115.294 220.636C125.563 210.776 140.296 203.37 157.903 199.222L158.39 199.106C156.941 193.625 155.784 186.84 155.309 181.054L154.742 181.206C133.943 186.834 116.567 196.396 104.49 208.851C91.5595 222.195 85 238.201 85 256.424C85 257.222 85.0122 258.026 85.0365 258.823C85.7187 280.749 95.6644 300.842 113.047 315.404C130.198 329.772 152.744 337.275 176.546 336.532C200.171 335.801 222.115 326.909 238.34 311.512C245.874 304.362 251.812 296.091 256.015 286.907C259.809 294.483 265.248 301.469 272.191 307.687C284.074 318.321 300.305 326.33 319.155 330.856C319.313 332.573 319.417 334.297 319.472 335.984C320.726 376.747 293.563 412.078 260.144 413.114C244.845 413.589 231.549 408.065 220.629 396.7C210.769 386.431 203.363 371.698 199.209 354.091L199.093 353.604C193.599 355.059 186.815 356.216 181.041 356.691L181.193 357.258C186.821 378.057 196.383 395.433 208.844 407.504C222.779 421.013 239.595 427.554 258.816 426.957H258.823ZM283.544 212.085C291.62 205.038 301.45 199.63 312.066 196.207C308.539 209.862 302.838 221.574 295.305 230.49C286.412 241.009 275.474 247.227 262.733 249.042C264.359 235.424 271.582 222.518 283.55 212.085H283.544ZM212.078 228.438C205.037 220.362 199.623 210.538 196.2 199.928C209.861 203.449 221.579 209.155 230.496 216.696C241.008 225.588 247.232 236.514 249.047 249.249C235.423 247.623 222.511 240.406 212.072 228.438H212.078ZM228.449 299.91C220.373 306.957 210.543 312.365 199.928 315.788C203.454 302.133 209.155 290.421 216.689 281.504C225.581 270.986 236.519 264.768 249.254 262.953C247.622 276.571 240.411 289.477 228.443 299.91H228.449ZM281.491 295.299C270.979 286.407 264.755 275.481 262.94 262.746C276.564 264.372 289.476 271.589 299.915 283.557C306.956 291.633 312.37 301.451 315.793 312.066C302.132 308.546 290.414 302.839 281.497 295.299H281.491Z" fill="#26D862"></path>
</g>
<defs>
<clipPath id="clip0_2184_12348">
<rect width="512" height="512" fill="white"></rect>
</clipPath>
</defs>
</svg></svg><style>@media (prefers-color-scheme: light) { :root { filter: none; } }
@media (prefers-color-scheme: dark) { :root { filter: none; } }
</style></svg>