<svg viewBox="0 0 60 24" fill="#000000" xmlns="http://www.w3.org/2000/svg">
  <path
    d="M40.0608 19.368C39.9648 18.0119 39.9878 16.6033 40.01 15.2415C40.0239 14.4097 40.0379 13.5499 40.0247 12.7115C40.0165 12.1676 39.9632 11.6828 39.8615 11.2308C39.3947 9.14213 38.0739 7.5818 36.0419 6.71878C33.2953 5.55304 29.6283 5.88037 26.9186 7.53422C25.3993 8.46123 24.1581 9.76315 23.3262 11.3054L23.053 11.8936V6.36192H21.2843V22.8045H23.053V16.2383C23.053 14.1447 23.7864 12.1061 25.1179 10.4974C26.4559 8.87962 28.3206 7.7951 30.3682 7.44398C31.6554 7.2233 32.9245 7.28565 34.1403 7.6302C36.384 8.26599 37.9451 9.90425 38.2331 11.9182C35.4233 12.3038 33.3502 12.8379 31.5208 13.6468C29.7743 14.4195 25.8251 16.6189 26.8694 20.3491C27.1557 21.3713 27.8218 22.1638 28.7964 22.642C29.4642 22.9694 30.264 23.1334 31.086 23.1334C31.8613 23.1334 32.657 22.9874 33.3781 22.6937C35.1928 21.9554 36.7146 20.24 37.9016 17.5935L38.2462 16.7592L38.2536 18.0562C38.2593 19.0283 38.3126 19.9135 38.4168 20.7618C38.4931 21.382 38.5883 21.9234 38.708 22.4189L38.7195 22.4673C38.7417 22.5633 38.7671 22.6716 38.8122 22.7602L38.8352 22.8053H40.7048L40.6753 22.7011C40.3389 21.5272 40.1379 20.4377 40.0625 19.3696L40.0608 19.368ZM38.2421 13.1554C38.2158 14.18 37.9541 15.2924 37.4636 16.4639C36.6046 18.514 34.3855 21.8496 31.36 21.8487C31.2296 21.8487 31.0975 21.8422 30.9646 21.8299C29.5684 21.6962 28.6709 20.8618 28.5027 19.5394C28.3099 18.0259 29.0589 16.7092 30.73 15.6255C31.8506 14.8986 33.3962 14.2751 35.324 13.7714C36.2338 13.5335 37.1896 13.3317 38.2421 13.1554ZM18.3425 13.2554L20.2482 13.6681L20.2285 13.7493C19.5821 16.4442 18.4213 18.7281 16.8724 20.3532C15.1144 22.1982 12.9535 23.1334 10.4498 23.1334C7.61051 23.1334 4.9673 21.9226 3.00499 19.7232C1.06729 17.5509 0 14.6591 0 11.5811C0 8.50307 1.06729 5.57519 3.00499 3.40287C4.96238 1.2084 7.60641 0 10.4498 0C12.9355 0 15.0816 0.913065 16.8281 2.71458C18.4016 4.33726 19.5772 6.64413 20.2285 9.38496L20.2482 9.46618L18.3425 9.87882L18.3269 9.79678C17.8511 7.32831 16.8979 5.24541 15.5697 3.77367C14.1209 2.16822 12.3202 1.35442 10.2185 1.35442C5.65067 1.35442 1.79167 6.03788 1.79167 11.5819C1.79167 17.1259 5.65067 21.7798 10.2185 21.7798C12.2882 21.7798 14.1381 20.9398 15.5697 19.3491C16.897 17.8749 17.8503 15.7961 18.3269 13.3375L18.3425 13.2554ZM59.583 19.9414C58.5699 21.9234 56.7519 23.1392 54.7683 23.1343C52.3745 23.1343 51.0562 21.5994 51.0562 18.8126V8.29552H44.5474V22.8004H42.8435V8.29552H40.0264V7.05677H42.8435V4.90331C42.8435 1.87945 44.5999 0.000820539 47.4269 0.000820539C49.2021 -0.00902382 50.7108 0.940137 51.8552 2.72935L50.5689 3.40697C49.6747 1.96231 48.5992 1.22562 47.3112 1.23957C45.9748 1.23957 44.5474 2.13377 44.5474 4.64162V7.05677H51.0562V4.85245H52.7601V7.05677H58.6839V8.29552H52.7601V19.103C52.7601 20.8774 53.4713 21.8955 54.7101 21.8955C56.2195 21.9062 57.5108 20.8651 58.1835 19.1604L59.583 19.9414Z" />
</svg>